<?xml version="1.0" encoding="UTF-8"?>
<svg xmlns="http://www.w3.org/2000/svg" xmlns:xlink="http://www.w3.org/1999/xlink" viewBox="0 0 5.981 7.531" version="1.2">
<defs>
<g>
<symbol overflow="visible" id="glyph0-0">
<path style="stroke:none;" d=""/>
</symbol>
<symbol overflow="visible" id="glyph0-1">
<path style="stroke:none;" d="M 4.5625 -3.25 C 4.5625 -4.03125 4.515625 -4.96875 4.09375 -5.765625 C 3.6875 -6.515625 3 -6.765625 2.5 -6.765625 C 1.90625 -6.765625 1.203125 -6.484375 0.796875 -5.609375 C 0.46875 -4.875 0.421875 -4.046875 0.421875 -3.25 C 0.421875 -2.46875 0.453125 -1.734375 0.75 -1 C 1.15625 -0.046875 1.90625 0.21875 2.484375 0.21875 C 3.203125 0.21875 3.84375 -0.1875 4.15625 -0.875 C 4.453125 -1.53125 4.5625 -2.1875 4.5625 -3.25 Z M 2.5 -0.390625 C 1.96875 -0.390625 1.5625 -0.765625 1.359375 -1.484375 C 1.203125 -2.046875 1.203125 -2.59375 1.203125 -3.375 C 1.203125 -4 1.203125 -4.59375 1.359375 -5.140625 C 1.421875 -5.328125 1.671875 -6.15625 2.484375 -6.15625 C 3.265625 -6.15625 3.515625 -5.390625 3.59375 -5.21875 C 3.78125 -4.65625 3.78125 -3.984375 3.78125 -3.375 C 3.78125 -2.71875 3.78125 -2.078125 3.59375 -1.453125 C 3.34375 -0.546875 2.8125 -0.390625 2.5 -0.390625 Z M 2.5 -0.390625 "/>
</symbol>
</g>
<clipPath id="clip1">
  <path d="M 0 0 L 5.980469 0 L 5.980469 7.53125 L 0 7.53125 Z M 0 0 "/>
</clipPath>
</defs>
<g id="surface1">
<g clip-path="url(#clip1)" clip-rule="nonzero">
<g style="fill:rgb(0%,0%,0%);fill-opacity:1;">
  <use xlink:href="#glyph0-1" x="0.5" y="7.031"/>
</g>
</g>
</g>
</svg>
