<?xml version="1.0" encoding="UTF-8"?>
<svg xmlns="http://www.w3.org/2000/svg" xmlns:xlink="http://www.w3.org/1999/xlink" viewBox="0 0 349.469 37.081" version="1.2">
<defs>
<g>
<symbol overflow="visible" id="glyph0-0">
<path style="stroke:none;" d=""/>
</symbol>
<symbol overflow="visible" id="glyph0-1">
<path style="stroke:none;" d="M -5.1875 -1.546875 L -5.171875 -1.484375 L -5.140625 -1.421875 L -5.109375 -1.390625 C -3.5625 -0.546875 -1.921875 0 0 0.203125 C 0.125 0.1875 0.1875 0.125 0.203125 0 L 0.1875 -0.0625 L 0.15625 -0.125 L 0.125 -0.15625 L 0.0625 -0.1875 L 0 -0.203125 C -1.734375 -0.375 -3.171875 -0.828125 -4.609375 -1.5625 C -4.71875 -1.625 -4.828125 -1.71875 -4.984375 -1.75 C -5.109375 -1.734375 -5.171875 -1.671875 -5.1875 -1.546875 Z M -5.1875 -1.546875 "/>
</symbol>
<symbol overflow="visible" id="glyph0-2">
<path style="stroke:none;" d="M 4.953125 2.15625 L 4.921875 2.03125 L 4.875 2 C 3.53125 1.03125 1.859375 0.234375 0.0625 -0.1875 L 0 -0.203125 C -0.125 -0.1875 -0.1875 -0.125 -0.203125 0 L -0.1875 0.0625 L -0.15625 0.125 L -0.125 0.15625 L -0.0625 0.1875 C 1.6875 0.59375 3.328125 1.375 4.640625 2.3125 L 4.6875 2.34375 L 4.75 2.359375 C 4.875 2.34375 4.9375 2.265625 4.953125 2.15625 Z M 4.953125 2.15625 "/>
</symbol>
<symbol overflow="visible" id="glyph1-0">
<path style="stroke:none;" d=""/>
</symbol>
<symbol overflow="visible" id="glyph1-1">
<path style="stroke:none;" d="M 0 -0.203125 C -1.78125 -0.015625 -3.25 0.4375 -4.71875 1.1875 C -4.859375 1.25 -5.03125 1.3125 -5.140625 1.421875 L -5.171875 1.484375 L -5.1875 1.546875 C -5.171875 1.671875 -5.109375 1.734375 -4.984375 1.75 L -4.921875 1.734375 C -3.609375 1.0625 -2.15625 0.515625 -0.640625 0.28125 C -0.40625 0.234375 -0.171875 0.234375 0.0625 0.1875 L 0.125 0.15625 L 0.15625 0.125 L 0.1875 0.0625 L 0.203125 0 C 0.1875 -0.125 0.125 -0.1875 0 -0.203125 Z M 0 -0.203125 "/>
</symbol>
<symbol overflow="visible" id="glyph1-2">
<path style="stroke:none;" d="M -0.203125 0 L -0.1875 0.0625 C -0.109375 0.203125 0.0625 0.203125 0.296875 0.203125 C 2.1875 0.203125 3.734375 -0.15625 5.203125 -0.734375 L 5.25 -0.75 L 5.296875 -0.796875 L 5.328125 -0.859375 L 5.328125 -0.921875 C 5.328125 -1.03125 5.25 -1.109375 5.140625 -1.109375 L 5.078125 -1.109375 C 3.640625 -0.546875 2.15625 -0.203125 0.296875 -0.203125 L 0 -0.203125 C -0.125 -0.1875 -0.1875 -0.125 -0.203125 0 Z M -0.203125 0 "/>
</symbol>
<symbol overflow="visible" id="glyph2-0">
<path style="stroke:none;" d=""/>
</symbol>
<symbol overflow="visible" id="glyph2-1">
<path style="stroke:none;" d="M 0 3.78125 C 0 3.890625 0.09375 3.984375 0.203125 3.984375 C 0.3125 3.984375 0.40625 3.890625 0.40625 3.78125 C 0.40625 1.703125 2.109375 0 4.1875 0 C 4.296875 0 4.390625 -0.09375 4.390625 -0.203125 C 4.390625 -0.3125 4.296875 -0.40625 4.1875 -0.40625 C 1.890625 -0.40625 0 1.484375 0 3.78125 Z M 0 3.78125 "/>
</symbol>
<symbol overflow="visible" id="glyph2-2">
<path style="stroke:none;" d="M 4.1875 0 C 4.296875 0 4.390625 -0.09375 4.390625 -0.203125 C 4.390625 -0.3125 4.296875 -0.40625 4.1875 -0.40625 C 2.109375 -0.40625 0.40625 -2.109375 0.40625 -4.1875 C 0.40625 -4.296875 0.3125 -4.390625 0.203125 -4.390625 C 0.09375 -4.390625 0 -4.296875 0 -4.1875 C 0 -1.890625 1.890625 0 4.1875 0 Z M 4.1875 0 "/>
</symbol>
<symbol overflow="visible" id="glyph2-3">
<path style="stroke:none;" d="M -3.78125 0 C -1.703125 0 0 1.703125 0 3.78125 C 0 3.890625 0.09375 3.984375 0.203125 3.984375 C 0.3125 3.984375 0.40625 3.890625 0.40625 3.78125 C 0.40625 1.484375 -1.484375 -0.40625 -3.78125 -0.40625 C -3.890625 -0.40625 -3.984375 -0.3125 -3.984375 -0.203125 C -3.984375 -0.09375 -3.890625 0 -3.78125 0 Z M -3.78125 0 "/>
</symbol>
<symbol overflow="visible" id="glyph2-4">
<path style="stroke:none;" d="M 0 -4.1875 C 0 -2.109375 -1.703125 -0.40625 -3.78125 -0.40625 C -3.890625 -0.40625 -3.984375 -0.3125 -3.984375 -0.203125 C -3.984375 -0.09375 -3.890625 0 -3.78125 0 C -1.484375 0 0.40625 -1.890625 0.40625 -4.1875 C 0.40625 -4.296875 0.3125 -4.390625 0.203125 -4.390625 C 0.09375 -4.390625 0 -4.296875 0 -4.1875 Z M 0 -4.1875 "/>
</symbol>
<symbol overflow="visible" id="glyph3-0">
<path style="stroke:none;" d=""/>
</symbol>
<symbol overflow="visible" id="glyph3-1">
<path style="stroke:none;" d="M 4.34375 -2.96875 C 4.34375 -3.625 4.1875 -4.53125 2.96875 -4.53125 C 2.078125 -4.53125 1.578125 -3.859375 1.53125 -3.78125 L 1.53125 -4.484375 L 0.8125 -4.484375 L 0.8125 0 L 1.578125 0 L 1.578125 -2.4375 C 1.578125 -3.09375 1.828125 -3.921875 2.59375 -3.921875 C 3.546875 -3.921875 3.5625 -3.21875 3.5625 -2.90625 L 3.5625 0 L 4.34375 0 Z M 4.34375 -2.96875 "/>
</symbol>
<symbol overflow="visible" id="glyph3-2">
<path style="stroke:none;" d="M 4.671875 -2.1875 C 4.671875 -3.53125 3.671875 -4.59375 2.5 -4.59375 C 1.265625 -4.59375 0.296875 -3.5 0.296875 -2.1875 C 0.296875 -0.875 1.3125 0.109375 2.484375 0.109375 C 3.671875 0.109375 4.671875 -0.890625 4.671875 -2.1875 Z M 2.484375 -0.53125 C 1.796875 -0.53125 1.078125 -1.09375 1.078125 -2.296875 C 1.078125 -3.5 1.828125 -3.984375 2.484375 -3.984375 C 3.1875 -3.984375 3.890625 -3.46875 3.890625 -2.296875 C 3.890625 -1.109375 3.21875 -0.53125 2.484375 -0.53125 Z M 2.484375 -0.53125 "/>
</symbol>
<symbol overflow="visible" id="glyph3-3">
<path style="stroke:none;" d="M 4.09375 -4.171875 C 3.5 -4.5 3.15625 -4.59375 2.546875 -4.59375 C 1.171875 -4.59375 0.359375 -3.390625 0.359375 -2.21875 C 0.359375 -0.984375 1.265625 0.109375 2.515625 0.109375 C 3.046875 0.109375 3.59375 -0.03125 4.140625 -0.40625 L 4.078125 -1.0625 C 3.5625 -0.671875 3.03125 -0.53125 2.515625 -0.53125 C 1.6875 -0.53125 1.140625 -1.25 1.140625 -2.21875 C 1.140625 -3 1.5 -3.953125 2.5625 -3.953125 C 3.078125 -3.953125 3.421875 -3.875 3.96875 -3.515625 Z M 4.09375 -4.171875 "/>
</symbol>
<symbol overflow="visible" id="glyph3-4">
<path style="stroke:none;" d="M 1.5625 -2.140625 C 1.5625 -3.125 2.28125 -3.84375 3.265625 -3.875 L 3.265625 -4.53125 C 2.375 -4.53125 1.828125 -4.03125 1.515625 -3.578125 L 1.515625 -4.484375 L 0.8125 -4.484375 L 0.8125 0 L 1.5625 0 Z M 1.5625 -2.140625 "/>
</symbol>
<symbol overflow="visible" id="glyph3-5">
<path style="stroke:none;" d="M 1.625 -6.78125 L 0.734375 -6.78125 L 0.734375 -5.890625 L 1.625 -5.890625 Z M 1.5625 -4.421875 L 0.8125 -4.421875 L 0.8125 0 L 1.5625 0 Z M 1.5625 -4.421875 "/>
</symbol>
<symbol overflow="visible" id="glyph3-6">
<path style="stroke:none;" d="M 1.75 -3.84375 L 3.15625 -3.84375 L 3.15625 -4.421875 L 1.75 -4.421875 L 1.75 -5.6875 L 1.0625 -5.6875 L 1.0625 -4.421875 L 0.1875 -4.421875 L 0.1875 -3.84375 L 1.03125 -3.84375 L 1.03125 -1.1875 C 1.03125 -0.59375 1.171875 0.109375 1.859375 0.109375 C 2.546875 0.109375 3.0625 -0.140625 3.3125 -0.265625 L 3.15625 -0.859375 C 2.890625 -0.640625 2.578125 -0.53125 2.25 -0.53125 C 1.890625 -0.53125 1.75 -0.828125 1.75 -1.359375 Z M 1.75 -3.84375 "/>
</symbol>
<symbol overflow="visible" id="glyph3-7">
<path style="stroke:none;" d="M 6.65625 -4.421875 L 5.9375 -4.421875 L 5.296875 -2.3125 C 5.1875 -1.953125 4.890625 -0.96875 4.828125 -0.53125 C 4.78125 -0.84375 4.53125 -1.734375 4.359375 -2.296875 L 3.71875 -4.421875 L 3.015625 -4.421875 L 2.453125 -2.546875 C 2.34375 -2.203125 2 -1.0625 1.96875 -0.546875 L 1.953125 -0.546875 C 1.90625 -1.03125 1.578125 -2.15625 1.421875 -2.703125 L 0.890625 -4.421875 L 0.140625 -4.421875 L 1.5 0 L 2.296875 0 C 2.34375 -0.15625 2.6875 -1.28125 2.90625 -2.046875 C 3.046875 -2.515625 3.328125 -3.5 3.359375 -3.875 L 3.375 -3.875 C 3.390625 -3.59375 3.5625 -2.90625 3.6875 -2.46875 L 4.421875 0 L 5.296875 0 Z M 6.65625 -4.421875 "/>
</symbol>
<symbol overflow="visible" id="glyph3-8">
<path style="stroke:none;" d="M 3.984375 -2.875 C 3.984375 -3.890625 3.25 -4.59375 2.328125 -4.59375 C 1.6875 -4.59375 1.234375 -4.4375 0.765625 -4.171875 L 0.828125 -3.515625 C 1.34375 -3.875 1.84375 -4 2.328125 -4 C 2.796875 -4 3.203125 -3.609375 3.203125 -2.875 L 3.203125 -2.4375 C 1.703125 -2.421875 0.4375 -2 0.4375 -1.125 C 0.4375 -0.703125 0.703125 0.109375 1.578125 0.109375 C 1.71875 0.109375 2.65625 0.09375 3.234375 -0.359375 L 3.234375 0 L 3.984375 0 Z M 3.203125 -1.3125 C 3.203125 -1.125 3.203125 -0.875 2.859375 -0.6875 C 2.578125 -0.515625 2.1875 -0.5 2.078125 -0.5 C 1.609375 -0.5 1.15625 -0.734375 1.15625 -1.140625 C 1.15625 -1.84375 2.765625 -1.90625 3.203125 -1.9375 Z M 3.203125 -1.3125 "/>
</symbol>
<symbol overflow="visible" id="glyph4-0">
<path style="stroke:none;" d=""/>
</symbol>
<symbol overflow="visible" id="glyph4-1">
<path style="stroke:none;" d="M 2.265625 -4.359375 C 2.265625 -4.46875 2.171875 -4.625 1.984375 -4.625 C 1.796875 -4.625 1.59375 -4.4375 1.59375 -4.234375 C 1.59375 -4.125 1.671875 -3.96875 1.875 -3.96875 C 2.0625 -3.96875 2.265625 -4.171875 2.265625 -4.359375 Z M 0.84375 -0.8125 C 0.8125 -0.71875 0.78125 -0.640625 0.78125 -0.515625 C 0.78125 -0.1875 1.046875 0.0625 1.4375 0.0625 C 2.125 0.0625 2.4375 -0.890625 2.4375 -1 C 2.4375 -1.09375 2.34375 -1.09375 2.328125 -1.09375 C 2.234375 -1.09375 2.21875 -1.046875 2.1875 -0.96875 C 2.03125 -0.40625 1.734375 -0.125 1.453125 -0.125 C 1.3125 -0.125 1.28125 -0.21875 1.28125 -0.375 C 1.28125 -0.53125 1.328125 -0.65625 1.390625 -0.8125 C 1.46875 -1 1.546875 -1.1875 1.609375 -1.375 C 1.671875 -1.546875 1.9375 -2.171875 1.953125 -2.265625 C 1.984375 -2.328125 2 -2.40625 2 -2.484375 C 2 -2.8125 1.71875 -3.078125 1.34375 -3.078125 C 0.640625 -3.078125 0.328125 -2.125 0.328125 -2 C 0.328125 -1.921875 0.421875 -1.921875 0.453125 -1.921875 C 0.546875 -1.921875 0.546875 -1.953125 0.578125 -2.03125 C 0.75 -2.625 1.0625 -2.875 1.3125 -2.875 C 1.421875 -2.875 1.484375 -2.828125 1.484375 -2.640625 C 1.484375 -2.46875 1.453125 -2.375 1.28125 -1.9375 Z M 0.84375 -0.8125 "/>
</symbol>
<symbol overflow="visible" id="glyph4-2">
<path style="stroke:none;" d="M 3.875 -2.625 C 3.90625 -2.71875 3.90625 -2.734375 3.90625 -2.78125 C 3.90625 -2.921875 3.796875 -3 3.671875 -3 C 3.59375 -3 3.46875 -2.96875 3.390625 -2.84375 C 3.359375 -2.796875 3.3125 -2.578125 3.28125 -2.4375 L 3.125 -1.859375 C 3.09375 -1.6875 2.875 -0.8125 2.84375 -0.734375 C 2.84375 -0.734375 2.53125 -0.125 2 -0.125 C 1.515625 -0.125 1.515625 -0.578125 1.515625 -0.703125 C 1.515625 -1.078125 1.671875 -1.515625 1.890625 -2.0625 C 1.96875 -2.28125 2 -2.359375 2 -2.484375 C 2 -2.8125 1.71875 -3.078125 1.34375 -3.078125 C 0.640625 -3.078125 0.328125 -2.125 0.328125 -2 C 0.328125 -1.921875 0.421875 -1.921875 0.453125 -1.921875 C 0.546875 -1.921875 0.546875 -1.953125 0.578125 -2.03125 C 0.75 -2.609375 1.046875 -2.875 1.328125 -2.875 C 1.4375 -2.875 1.5 -2.796875 1.5 -2.640625 C 1.5 -2.46875 1.4375 -2.328125 1.40625 -2.234375 C 1.0625 -1.375 1 -1.125 1 -0.8125 C 1 -0.703125 1 -0.375 1.265625 -0.140625 C 1.484375 0.03125 1.78125 0.0625 1.96875 0.0625 C 2.25 0.0625 2.5 -0.03125 2.71875 -0.25 C 2.640625 0.140625 2.5625 0.4375 2.265625 0.78125 C 2.078125 1 1.796875 1.21875 1.421875 1.21875 C 1.375 1.21875 1.046875 1.21875 0.90625 1 C 1.28125 0.953125 1.28125 0.625 1.28125 0.609375 C 1.28125 0.390625 1.078125 0.34375 1.015625 0.34375 C 0.84375 0.34375 0.609375 0.484375 0.609375 0.8125 C 0.609375 1.15625 0.9375 1.421875 1.4375 1.421875 C 2.140625 1.421875 3 0.875 3.21875 0 Z M 3.875 -2.625 "/>
</symbol>
<symbol overflow="visible" id="glyph4-3">
<path style="stroke:none;" d="M 5.3125 -3.671875 C 5.390625 -3.703125 5.46875 -3.75 5.46875 -3.84375 C 5.46875 -3.9375 5.390625 -4.015625 5.296875 -4.015625 C 5.28125 -4.015625 5.25 -4.015625 5.15625 -3.984375 L 0.90625 -1.9375 C 0.828125 -1.890625 0.75 -1.84375 0.75 -1.75 C 0.75 -1.640625 0.828125 -1.609375 0.90625 -1.5625 L 5.15625 0.484375 C 5.25 0.53125 5.28125 0.53125 5.296875 0.53125 C 5.390625 0.53125 5.46875 0.453125 5.46875 0.359375 C 5.46875 0.25 5.375 0.203125 5.3125 0.1875 L 1.3125 -1.734375 Z M 5.3125 -3.671875 "/>
</symbol>
<symbol overflow="visible" id="glyph5-0">
<path style="stroke:none;" d=""/>
</symbol>
<symbol overflow="visible" id="glyph5-1">
<path style="stroke:none;" d="M 1.96875 -3.109375 C 1.96875 -3.234375 1.890625 -3.328125 1.75 -3.328125 C 1.609375 -3.328125 1.453125 -3.1875 1.453125 -3.03125 C 1.453125 -2.890625 1.5625 -2.8125 1.671875 -2.8125 C 1.828125 -2.8125 1.96875 -2.953125 1.96875 -3.109375 Z M 2.203125 -0.71875 C 2.203125 -0.78125 2.125 -0.78125 2.109375 -0.78125 C 2.015625 -0.78125 2.015625 -0.765625 1.984375 -0.671875 C 1.90625 -0.40625 1.671875 -0.109375 1.421875 -0.109375 C 1.3125 -0.109375 1.28125 -0.1875 1.28125 -0.296875 C 1.28125 -0.40625 1.296875 -0.46875 1.34375 -0.5625 C 1.375 -0.65625 1.421875 -0.75 1.453125 -0.828125 C 1.46875 -0.875 1.65625 -1.328125 1.734375 -1.515625 C 1.765625 -1.609375 1.796875 -1.6875 1.796875 -1.765625 C 1.796875 -2 1.5625 -2.203125 1.25 -2.203125 C 0.734375 -2.203125 0.453125 -1.5625 0.453125 -1.4375 C 0.453125 -1.359375 0.53125 -1.359375 0.5625 -1.359375 C 0.640625 -1.359375 0.640625 -1.390625 0.671875 -1.453125 C 0.78125 -1.8125 1.015625 -2.03125 1.234375 -2.03125 C 1.328125 -2.03125 1.390625 -1.984375 1.390625 -1.84375 C 1.390625 -1.828125 1.390625 -1.765625 1.359375 -1.671875 C 1.328125 -1.578125 1.09375 -1.046875 1.03125 -0.875 C 0.984375 -0.78125 0.984375 -0.78125 0.921875 -0.609375 C 0.890625 -0.53125 0.859375 -0.46875 0.859375 -0.390625 C 0.859375 -0.125 1.109375 0.0625 1.40625 0.0625 C 1.921875 0.0625 2.203125 -0.59375 2.203125 -0.71875 Z M 2.203125 -0.71875 "/>
</symbol>
<symbol overflow="visible" id="glyph6-0">
<path style="stroke:none;" d=""/>
</symbol>
<symbol overflow="visible" id="glyph6-1">
<path style="stroke:none;" d="M 1.53125 -2.59375 C 1.53125 -2.84375 1.328125 -3 1.125 -3 C 0.890625 -3 0.71875 -2.8125 0.71875 -2.609375 C 0.71875 -2.359375 0.921875 -2.203125 1.125 -2.203125 C 1.359375 -2.203125 1.53125 -2.390625 1.53125 -2.59375 Z M 1.53125 -0.390625 C 1.53125 -0.640625 1.328125 -0.796875 1.125 -0.796875 C 0.890625 -0.796875 0.71875 -0.609375 0.71875 -0.40625 C 0.71875 -0.15625 0.921875 0 1.125 0 C 1.359375 0 1.53125 -0.1875 1.53125 -0.390625 Z M 1.53125 -0.390625 "/>
</symbol>
<symbol overflow="visible" id="glyph6-2">
<path style="stroke:none;" d="M 5.359375 -2.34375 C 5.453125 -2.34375 5.609375 -2.34375 5.609375 -2.515625 C 5.609375 -2.6875 5.453125 -2.6875 5.359375 -2.6875 L 0.75 -2.6875 C 0.65625 -2.6875 0.484375 -2.6875 0.484375 -2.515625 C 0.484375 -2.34375 0.640625 -2.34375 0.75 -2.34375 Z M 5.359375 -0.8125 C 5.453125 -0.8125 5.609375 -0.8125 5.609375 -0.96875 C 5.609375 -1.15625 5.453125 -1.15625 5.359375 -1.15625 L 0.75 -1.15625 C 0.640625 -1.15625 0.484375 -1.15625 0.484375 -0.96875 C 0.484375 -0.8125 0.65625 -0.8125 0.75 -0.8125 Z M 5.359375 -0.8125 "/>
</symbol>
<symbol overflow="visible" id="glyph6-3">
<path style="stroke:none;" d="M 3.21875 -1.578125 L 5.359375 -1.578125 C 5.453125 -1.578125 5.609375 -1.578125 5.609375 -1.734375 C 5.609375 -1.921875 5.453125 -1.921875 5.359375 -1.921875 L 3.21875 -1.921875 L 3.21875 -4.0625 C 3.21875 -4.140625 3.21875 -4.3125 3.0625 -4.3125 C 2.890625 -4.3125 2.890625 -4.15625 2.890625 -4.0625 L 2.890625 -1.921875 L 0.75 -1.921875 C 0.65625 -1.921875 0.484375 -1.921875 0.484375 -1.75 C 0.484375 -1.578125 0.640625 -1.578125 0.75 -1.578125 L 2.890625 -1.578125 L 2.890625 0.5625 C 2.890625 0.65625 2.890625 0.828125 3.046875 0.828125 C 3.21875 0.828125 3.21875 0.65625 3.21875 0.5625 Z M 3.21875 -1.578125 "/>
</symbol>
<symbol overflow="visible" id="glyph6-4">
<path style="stroke:none;" d="M 2.328125 -4.4375 C 2.328125 -4.625 2.328125 -4.625 2.125 -4.625 C 1.671875 -4.1875 1.046875 -4.1875 0.765625 -4.1875 L 0.765625 -3.9375 C 0.921875 -3.9375 1.390625 -3.9375 1.765625 -4.125 L 1.765625 -0.578125 C 1.765625 -0.34375 1.765625 -0.25 1.078125 -0.25 L 0.8125 -0.25 L 0.8125 0 C 0.9375 0 1.796875 -0.03125 2.046875 -0.03125 C 2.265625 -0.03125 3.140625 0 3.296875 0 L 3.296875 -0.25 L 3.03125 -0.25 C 2.328125 -0.25 2.328125 -0.34375 2.328125 -0.578125 Z M 2.328125 -4.4375 "/>
</symbol>
<symbol overflow="visible" id="glyph6-5">
<path style="stroke:none;" d="M 3.59375 -2.21875 C 3.59375 -2.984375 3.5 -3.546875 3.1875 -4.03125 C 2.96875 -4.34375 2.53125 -4.625 1.984375 -4.625 C 0.359375 -4.625 0.359375 -2.71875 0.359375 -2.21875 C 0.359375 -1.71875 0.359375 0.140625 1.984375 0.140625 C 3.59375 0.140625 3.59375 -1.71875 3.59375 -2.21875 Z M 1.984375 -0.0625 C 1.65625 -0.0625 1.234375 -0.25 1.09375 -0.8125 C 1 -1.21875 1 -1.796875 1 -2.3125 C 1 -2.828125 1 -3.359375 1.09375 -3.734375 C 1.25 -4.28125 1.6875 -4.4375 1.984375 -4.4375 C 2.359375 -4.4375 2.71875 -4.203125 2.84375 -3.796875 C 2.953125 -3.421875 2.96875 -2.921875 2.96875 -2.3125 C 2.96875 -1.796875 2.96875 -1.28125 2.875 -0.84375 C 2.734375 -0.203125 2.265625 -0.0625 1.984375 -0.0625 Z M 1.984375 -0.0625 "/>
</symbol>
<symbol overflow="visible" id="glyph7-0">
<path style="stroke:none;" d=""/>
</symbol>
<symbol overflow="visible" id="glyph7-1">
<path style="stroke:none;" d="M 4.390625 -1.109375 C 4.46875 -1.109375 4.59375 -1.109375 4.59375 -1.25 C 4.59375 -1.390625 4.46875 -1.390625 4.390625 -1.390625 L 1.015625 -1.390625 C 0.9375 -1.390625 0.796875 -1.390625 0.796875 -1.25 C 0.796875 -1.109375 0.9375 -1.109375 1.015625 -1.109375 Z M 4.390625 -1.109375 "/>
</symbol>
<symbol overflow="visible" id="glyph8-0">
<path style="stroke:none;" d=""/>
</symbol>
<symbol overflow="visible" id="glyph8-1">
<path style="stroke:none;" d="M 1.984375 -3.171875 C 1.984375 -3.3125 1.96875 -3.3125 1.796875 -3.3125 C 1.453125 -3 0.890625 -3 0.796875 -3 L 0.71875 -3 L 0.71875 -2.78125 L 0.796875 -2.78125 C 0.90625 -2.78125 1.234375 -2.796875 1.53125 -2.921875 L 1.53125 -0.421875 C 1.53125 -0.28125 1.53125 -0.21875 1 -0.21875 L 0.75 -0.21875 L 0.75 0 C 1.015625 -0.015625 1.46875 -0.015625 1.75 -0.015625 C 2.046875 -0.015625 2.484375 -0.015625 2.765625 0 L 2.765625 -0.21875 L 2.515625 -0.21875 C 1.984375 -0.21875 1.984375 -0.28125 1.984375 -0.421875 Z M 1.984375 -3.171875 "/>
</symbol>
<symbol overflow="visible" id="glyph9-0">
<path style="stroke:none;" d=""/>
</symbol>
<symbol overflow="visible" id="glyph9-1">
<path style="stroke:none;" d="M 4.78125 -3.890625 C 4.828125 -3.984375 4.828125 -4 4.828125 -4.015625 C 4.828125 -4.125 4.734375 -4.1875 4.65625 -4.1875 C 4.5625 -4.1875 4.515625 -4.125 4.453125 -4.015625 L 2.6875 -0.421875 L 0.90625 -4 C 0.84375 -4.140625 0.8125 -4.1875 0.703125 -4.1875 C 0.625 -4.1875 0.53125 -4.125 0.53125 -4.015625 C 0.53125 -4 0.53125 -3.984375 0.578125 -3.890625 L 2.5 -0.015625 C 2.53125 0.0625 2.578125 0.140625 2.671875 0.140625 C 2.78125 0.140625 2.8125 0.078125 2.859375 -0.015625 Z M 4.78125 -3.890625 "/>
</symbol>
</g>
</defs>
<g id="surface1">
<g style="fill:rgb(0%,0%,0%);fill-opacity:1;">
  <use xlink:href="#glyph0-1" x="36.504" y="12.798"/>
</g>
<g style="fill:rgb(0%,0%,0%);fill-opacity:1;">
  <use xlink:href="#glyph1-1" x="36.504" y="12.798"/>
</g>
<path style="fill:none;stroke-width:0.398;stroke-linecap:round;stroke-linejoin:round;stroke:rgb(0%,0%,0%);stroke-opacity:1;stroke-miterlimit:10;" d="M 2.987563 0.001125 L 33.014906 0.001125 " transform="matrix(1,0,0,-1,3.489,12.798)"/>
<g style="fill:rgb(0%,0%,0%);fill-opacity:1;">
  <use xlink:href="#glyph2-1" x="39.493" y="5.532"/>
</g>
<path style="fill:none;stroke-width:0.398;stroke-linecap:butt;stroke-linejoin:miter;stroke:rgb(0%,0%,0%);stroke-opacity:1;stroke-miterlimit:10;" d="M -0.00059375 0.001625 L -0.00059375 6.669594 " transform="matrix(1,0,0,-1,39.692,15.986)"/>
<g style="fill:rgb(0%,0%,0%);fill-opacity:1;">
  <use xlink:href="#glyph2-2" x="39.493" y="20.17"/>
</g>
<g style="fill:rgb(0%,0%,0%);fill-opacity:1;">
  <use xlink:href="#glyph2-3" x="78.271" y="5.532"/>
</g>
<path style="fill:none;stroke-width:0.398;stroke-linecap:butt;stroke-linejoin:miter;stroke:rgb(0%,0%,0%);stroke-opacity:1;stroke-miterlimit:10;" d="M -0.00125 0.001625 L -0.00125 6.669594 " transform="matrix(1,0,0,-1,78.47,15.986)"/>
<g style="fill:rgb(0%,0%,0%);fill-opacity:1;">
  <use xlink:href="#glyph2-4" x="78.271" y="20.17"/>
</g>
<path style="fill:none;stroke-width:0.398;stroke-linecap:butt;stroke-linejoin:miter;stroke:rgb(0%,0%,0%);stroke-opacity:1;stroke-miterlimit:10;" d="M -0.00121875 -0.00165625 L 30.807375 -0.00165625 " transform="matrix(1,0,0,-1,43.677,19.971)"/>
<path style="fill:none;stroke-width:0.398;stroke-linecap:butt;stroke-linejoin:miter;stroke:rgb(0%,0%,0%);stroke-opacity:1;stroke-miterlimit:10;" d="M -0.00121875 -0.00003125 L 30.807375 -0.00003125 " transform="matrix(1,0,0,-1,43.677,5.332)"/>
<g style="fill:rgb(0%,0%,0%);fill-opacity:1;">
  <use xlink:href="#glyph3-1" x="42.88" y="15.289"/>
  <use xlink:href="#glyph3-2" x="48.027675" y="15.289"/>
  <use xlink:href="#glyph3-1" x="53.008975" y="15.289"/>
  <use xlink:href="#glyph3-3" x="58.156651" y="15.289"/>
  <use xlink:href="#glyph3-4" x="62.58403" y="15.289"/>
  <use xlink:href="#glyph3-5" x="65.988251" y="15.289"/>
  <use xlink:href="#glyph3-6" x="68.368316" y="15.289"/>
</g>
<g style="fill:rgb(0%,0%,0%);fill-opacity:1;">
  <use xlink:href="#glyph4-1" x="71.965" y="16.783"/>
</g>
<g style="fill:rgb(0%,0%,0%);fill-opacity:1;">
  <use xlink:href="#glyph4-2" x="108.909" y="7.983"/>
</g>
<g style="fill:rgb(0%,0%,0%);fill-opacity:1;">
  <use xlink:href="#glyph5-1" x="112.949" y="8.979"/>
</g>
<g style="fill:rgb(0%,0%,0%);fill-opacity:1;">
  <use xlink:href="#glyph6-1" x="116.105" y="7.983"/>
  <use xlink:href="#glyph6-2" x="118.360327" y="7.983"/>
</g>
<g style="fill:rgb(0%,0%,0%);fill-opacity:1;">
  <use xlink:href="#glyph4-2" x="124.477" y="7.983"/>
</g>
<g style="fill:rgb(0%,0%,0%);fill-opacity:1;">
  <use xlink:href="#glyph5-1" x="128.517" y="8.979"/>
</g>
<g style="fill:rgb(0%,0%,0%);fill-opacity:1;">
  <use xlink:href="#glyph7-1" x="131.175" y="8.979"/>
</g>
<g style="fill:rgb(0%,0%,0%);fill-opacity:1;">
  <use xlink:href="#glyph8-1" x="136.571" y="8.979"/>
</g>
<g style="fill:rgb(0%,0%,0%);fill-opacity:1;">
  <use xlink:href="#glyph6-3" x="140.46" y="7.983"/>
  <use xlink:href="#glyph6-4" x="146.576023" y="7.983"/>
</g>
<g style="fill:rgb(0%,0%,0%);fill-opacity:1;">
  <use xlink:href="#glyph0-1" x="183.692" y="12.798"/>
</g>
<g style="fill:rgb(0%,0%,0%);fill-opacity:1;">
  <use xlink:href="#glyph1-1" x="183.692" y="12.798"/>
</g>
<path style="fill:none;stroke-width:0.398;stroke-linecap:round;stroke-linejoin:round;stroke:rgb(0%,0%,0%);stroke-opacity:1;stroke-miterlimit:10;" d="M 78.16725 0.001125 L 180.202406 0.001125 " transform="matrix(1,0,0,-1,3.489,12.798)"/>
<g style="fill:rgb(0%,0%,0%);fill-opacity:1;">
  <use xlink:href="#glyph2-1" x="186.681" y="5.532"/>
</g>
<path style="fill:none;stroke-width:0.398;stroke-linecap:butt;stroke-linejoin:miter;stroke:rgb(0%,0%,0%);stroke-opacity:1;stroke-miterlimit:10;" d="M -0.00109375 0.001625 L -0.00109375 6.669594 " transform="matrix(1,0,0,-1,186.88,15.986)"/>
<g style="fill:rgb(0%,0%,0%);fill-opacity:1;">
  <use xlink:href="#glyph2-2" x="186.681" y="20.17"/>
</g>
<g style="fill:rgb(0%,0%,0%);fill-opacity:1;">
  <use xlink:href="#glyph2-3" x="213.67" y="5.532"/>
</g>
<path style="fill:none;stroke-width:0.398;stroke-linecap:butt;stroke-linejoin:miter;stroke:rgb(0%,0%,0%);stroke-opacity:1;stroke-miterlimit:10;" d="M -0.0018125 0.001625 L -0.0018125 6.669594 " transform="matrix(1,0,0,-1,213.869,15.986)"/>
<g style="fill:rgb(0%,0%,0%);fill-opacity:1;">
  <use xlink:href="#glyph2-4" x="213.67" y="20.17"/>
</g>
<path style="fill:none;stroke-width:0.398;stroke-linecap:butt;stroke-linejoin:miter;stroke:rgb(0%,0%,0%);stroke-opacity:1;stroke-miterlimit:10;" d="M -0.00171875 -0.00165625 L 19.017812 -0.00165625 " transform="matrix(1,0,0,-1,190.865,19.971)"/>
<path style="fill:none;stroke-width:0.398;stroke-linecap:butt;stroke-linejoin:miter;stroke:rgb(0%,0%,0%);stroke-opacity:1;stroke-miterlimit:10;" d="M -0.00171875 -0.00003125 L 19.017812 -0.00003125 " transform="matrix(1,0,0,-1,190.865,5.332)"/>
<g style="fill:rgb(0%,0%,0%);fill-opacity:1;">
  <use xlink:href="#glyph3-7" x="190.068" y="15.289"/>
</g>
<g style="fill:rgb(0%,0%,0%);fill-opacity:1;">
  <use xlink:href="#glyph3-8" x="196.596492" y="15.289"/>
  <use xlink:href="#glyph3-5" x="201.384517" y="15.289"/>
  <use xlink:href="#glyph3-6" x="203.764582" y="15.289"/>
</g>
<g style="fill:rgb(0%,0%,0%);fill-opacity:1;">
  <use xlink:href="#glyph4-1" x="207.364" y="16.783"/>
</g>
<g style="fill:rgb(0%,0%,0%);fill-opacity:1;">
  <use xlink:href="#glyph4-2" x="236.78" y="7.983"/>
</g>
<g style="fill:rgb(0%,0%,0%);fill-opacity:1;">
  <use xlink:href="#glyph5-1" x="240.82" y="8.979"/>
</g>
<g style="fill:rgb(0%,0%,0%);fill-opacity:1;">
  <use xlink:href="#glyph7-1" x="243.478" y="8.979"/>
</g>
<g style="fill:rgb(0%,0%,0%);fill-opacity:1;">
  <use xlink:href="#glyph8-1" x="248.875" y="8.979"/>
</g>
<g style="fill:rgb(0%,0%,0%);fill-opacity:1;">
  <use xlink:href="#glyph6-2" x="252.763" y="7.983"/>
  <use xlink:href="#glyph6-5" x="258.879023" y="7.983"/>
</g>
<g style="fill:rgb(0%,0%,0%);fill-opacity:1;">
  <use xlink:href="#glyph9-1" x="262.85" y="7.983"/>
</g>
<g style="fill:rgb(0%,0%,0%);fill-opacity:1;">
  <use xlink:href="#glyph4-2" x="268.219" y="7.983"/>
</g>
<g style="fill:rgb(0%,0%,0%);fill-opacity:1;">
  <use xlink:href="#glyph5-1" x="272.259" y="8.979"/>
</g>
<g style="fill:rgb(0%,0%,0%);fill-opacity:1;">
  <use xlink:href="#glyph4-3" x="275.415" y="7.983"/>
  <use xlink:href="#glyph4-2" x="281.641906" y="7.983"/>
</g>
<g style="fill:rgb(0%,0%,0%);fill-opacity:1;">
  <use xlink:href="#glyph5-1" x="285.682" y="8.979"/>
</g>
<g style="fill:rgb(0%,0%,0%);fill-opacity:1;">
  <use xlink:href="#glyph7-1" x="288.34" y="8.979"/>
</g>
<g style="fill:rgb(0%,0%,0%);fill-opacity:1;">
  <use xlink:href="#glyph8-1" x="293.737" y="8.979"/>
</g>
<g style="fill:rgb(0%,0%,0%);fill-opacity:1;">
  <use xlink:href="#glyph0-1" x="319.091" y="12.798"/>
</g>
<g style="fill:rgb(0%,0%,0%);fill-opacity:1;">
  <use xlink:href="#glyph1-1" x="319.091" y="12.798"/>
</g>
<path style="fill:none;stroke-width:0.398;stroke-linecap:round;stroke-linejoin:round;stroke:rgb(0%,0%,0%);stroke-opacity:1;stroke-miterlimit:10;" d="M 213.569594 0.001125 L 315.600844 0.001125 " transform="matrix(1,0,0,-1,3.489,12.798)"/>
<g style="fill:rgb(0%,0%,0%);fill-opacity:1;">
  <use xlink:href="#glyph2-1" x="322.08" y="5.532"/>
</g>
<path style="fill:none;stroke-width:0.398;stroke-linecap:butt;stroke-linejoin:miter;stroke:rgb(0%,0%,0%);stroke-opacity:1;stroke-miterlimit:10;" d="M -0.00165625 0.001625 L -0.00165625 6.669594 " transform="matrix(1,0,0,-1,322.279,15.986)"/>
<g style="fill:rgb(0%,0%,0%);fill-opacity:1;">
  <use xlink:href="#glyph2-2" x="322.08" y="20.17"/>
</g>
<g style="fill:rgb(0%,0%,0%);fill-opacity:1;">
  <use xlink:href="#glyph2-3" x="345.582" y="5.532"/>
</g>
<path style="fill:none;stroke-width:0.398;stroke-linecap:butt;stroke-linejoin:miter;stroke:rgb(0%,0%,0%);stroke-opacity:1;stroke-miterlimit:10;" d="M 0.00025 0.001625 L 0.00025 6.669594 " transform="matrix(1,0,0,-1,345.781,15.986)"/>
<g style="fill:rgb(0%,0%,0%);fill-opacity:1;">
  <use xlink:href="#glyph2-4" x="345.582" y="20.17"/>
</g>
<path style="fill:none;stroke-width:0.398;stroke-linecap:butt;stroke-linejoin:miter;stroke:rgb(0%,0%,0%);stroke-opacity:1;stroke-miterlimit:10;" d="M 0.001625 -0.00165625 L 15.532875 -0.00165625 " transform="matrix(1,0,0,-1,326.264,19.971)"/>
<path style="fill:none;stroke-width:0.398;stroke-linecap:butt;stroke-linejoin:miter;stroke:rgb(0%,0%,0%);stroke-opacity:1;stroke-miterlimit:10;" d="M 0.001625 -0.00003125 L 15.532875 -0.00003125 " transform="matrix(1,0,0,-1,326.264,5.332)"/>
<g style="fill:rgb(0%,0%,0%);fill-opacity:1;">
  <use xlink:href="#glyph3-3" x="325.467" y="15.289"/>
  <use xlink:href="#glyph3-4" x="329.894379" y="15.289"/>
  <use xlink:href="#glyph3-5" x="333.2986" y="15.289"/>
  <use xlink:href="#glyph3-6" x="335.678665" y="15.289"/>
</g>
<g style="fill:rgb(0%,0%,0%);fill-opacity:1;">
  <use xlink:href="#glyph4-1" x="339.276" y="16.783"/>
</g>
<g style="fill:rgb(0%,0%,0%);fill-opacity:1;">
  <use xlink:href="#glyph4-2" x="186.786" y="32.236"/>
</g>
<g style="fill:rgb(0%,0%,0%);fill-opacity:1;">
  <use xlink:href="#glyph5-1" x="190.826" y="33.232"/>
</g>
<g style="fill:rgb(0%,0%,0%);fill-opacity:1;">
  <use xlink:href="#glyph6-1" x="193.982" y="32.236"/>
  <use xlink:href="#glyph6-2" x="196.237327" y="32.236"/>
  <use xlink:href="#glyph6-5" x="202.35335" y="32.236"/>
</g>
<g style="fill:rgb(0%,0%,0%);fill-opacity:1;">
  <use xlink:href="#glyph0-2" x="81.635" y="16.399"/>
</g>
<g style="fill:rgb(0%,0%,0%);fill-opacity:1;">
  <use xlink:href="#glyph1-2" x="81.635" y="16.399"/>
</g>
<path style="fill:none;stroke-width:0.398;stroke-linecap:round;stroke-linejoin:round;stroke:rgb(0%,0%,0%);stroke-opacity:1;stroke-miterlimit:10;" d="M 315.5735 -2.463719 C 236.428969 -14.729344 157.288344 -15.10825 78.147719 -3.600438 " transform="matrix(1,0,0,-1,3.489,12.798)"/>
</g>
</svg>
