<?xml version="1.0" encoding="UTF-8"?>
<svg xmlns="http://www.w3.org/2000/svg" xmlns:xlink="http://www.w3.org/1999/xlink" viewBox="0 0 159.676 139.887" version="1.2">
<defs>
<g>
<symbol overflow="visible" id="glyph0-0">
<path style="stroke:none;" d=""/>
</symbol>
<symbol overflow="visible" id="glyph0-1">
<path style="stroke:none;" d="M 1.546875 -5.1875 L 1.484375 -5.171875 L 1.421875 -5.140625 L 1.390625 -5.109375 C 0.546875 -3.5625 0 -1.921875 -0.203125 0 C -0.1875 0.125 -0.125 0.1875 0 0.203125 L 0.0625 0.1875 L 0.125 0.15625 L 0.15625 0.125 L 0.1875 0.0625 L 0.203125 0 C 0.375 -1.734375 0.828125 -3.171875 1.5625 -4.609375 C 1.625 -4.71875 1.71875 -4.828125 1.75 -4.984375 C 1.734375 -5.109375 1.671875 -5.171875 1.546875 -5.1875 Z M 1.546875 -5.1875 "/>
</symbol>
<symbol overflow="visible" id="glyph0-2">
<path style="stroke:none;" d="M 2.71875 -4.65625 L 2.640625 -4.640625 L 2.59375 -4.625 L 2.546875 -4.578125 C 1.359375 -3.296875 0.453125 -1.828125 -0.1875 -0.0625 L -0.203125 0 C -0.1875 0.125 -0.125 0.1875 0 0.203125 L 0.0625 0.1875 L 0.125 0.15625 L 0.15625 0.125 L 0.1875 0.0625 C 0.8125 -1.671875 1.71875 -3.078125 2.875 -4.34375 L 2.90625 -4.390625 L 2.90625 -4.453125 C 2.90625 -4.578125 2.828125 -4.640625 2.71875 -4.65625 Z M 2.71875 -4.65625 "/>
</symbol>
<symbol overflow="visible" id="glyph0-3">
<path style="stroke:none;" d="M -5.1875 -1.546875 L -5.171875 -1.484375 L -5.140625 -1.421875 L -5.109375 -1.390625 C -3.5625 -0.546875 -1.921875 0 0 0.203125 C 0.125 0.1875 0.1875 0.125 0.203125 0 L 0.1875 -0.0625 L 0.15625 -0.125 L 0.125 -0.15625 L 0.0625 -0.1875 L 0 -0.203125 C -1.734375 -0.375 -3.171875 -0.828125 -4.609375 -1.5625 C -4.71875 -1.625 -4.828125 -1.71875 -4.984375 -1.75 C -5.109375 -1.734375 -5.171875 -1.671875 -5.1875 -1.546875 Z M -5.1875 -1.546875 "/>
</symbol>
<symbol overflow="visible" id="glyph0-4">
<path style="stroke:none;" d="M 5.1875 1.546875 L 5.171875 1.484375 L 5.140625 1.421875 L 5.109375 1.390625 C 3.5625 0.546875 1.921875 0 0 -0.203125 C -0.125 -0.1875 -0.1875 -0.125 -0.203125 0 L -0.1875 0.0625 L -0.15625 0.125 L -0.125 0.15625 L -0.0625 0.1875 L 0 0.203125 C 1.734375 0.375 3.171875 0.828125 4.609375 1.5625 C 4.71875 1.625 4.828125 1.71875 4.984375 1.75 C 5.109375 1.734375 5.171875 1.671875 5.1875 1.546875 Z M 5.1875 1.546875 "/>
</symbol>
<symbol overflow="visible" id="glyph0-5">
<path style="stroke:none;" d="M 1.75 4.984375 C 1.5625 3.203125 1.109375 1.75 0.375 0.265625 C 0.296875 0.125 0.234375 -0.046875 0.125 -0.15625 L 0.0625 -0.1875 L 0 -0.203125 C -0.125 -0.1875 -0.1875 -0.125 -0.203125 0 L -0.1875 0.0625 L -0.15625 0.125 C 0.53125 1.390625 1.03125 2.875 1.265625 4.34375 C 1.3125 4.578125 1.328125 4.8125 1.359375 5.046875 L 1.390625 5.109375 L 1.484375 5.171875 L 1.5625 5.1875 C 1.671875 5.171875 1.75 5.109375 1.75 4.984375 Z M 1.75 4.984375 "/>
</symbol>
<symbol overflow="visible" id="glyph1-0">
<path style="stroke:none;" d=""/>
</symbol>
<symbol overflow="visible" id="glyph1-1">
<path style="stroke:none;" d="M 0.203125 0 C 0.015625 -1.78125 -0.4375 -3.25 -1.1875 -4.71875 C -1.25 -4.859375 -1.3125 -5.03125 -1.421875 -5.140625 L -1.484375 -5.171875 L -1.546875 -5.1875 C -1.671875 -5.171875 -1.734375 -5.109375 -1.75 -4.984375 L -1.734375 -4.921875 C -1.0625 -3.609375 -0.515625 -2.15625 -0.28125 -0.640625 C -0.234375 -0.40625 -0.234375 -0.171875 -0.1875 0.0625 L -0.15625 0.125 L -0.125 0.15625 L -0.0625 0.1875 L 0 0.203125 C 0.125 0.1875 0.1875 0.125 0.203125 0 Z M 0.203125 0 "/>
</symbol>
<symbol overflow="visible" id="glyph1-2">
<path style="stroke:none;" d="M 0 0.203125 L 0.0625 0.1875 L 0.125 0.15625 L 0.15625 0.125 L 0.1875 0.0625 C 0.296875 -0.578125 0.328125 -1.234375 0.328125 -1.890625 C 0.328125 -3.078125 0.15625 -4.28125 -0.09375 -5.28125 L -0.125 -5.328125 L -0.171875 -5.375 L -0.234375 -5.40625 L -0.296875 -5.40625 C -0.40625 -5.40625 -0.484375 -5.328125 -0.484375 -5.21875 L -0.484375 -5.140625 C -0.234375 -4.171875 -0.0625 -3.046875 -0.0625 -1.890625 C -0.0625 -1.25 -0.109375 -0.625 -0.203125 0 C -0.1875 0.125 -0.125 0.1875 0 0.203125 Z M 0 0.203125 "/>
</symbol>
<symbol overflow="visible" id="glyph1-3">
<path style="stroke:none;" d="M 0 -0.203125 C -1.78125 -0.015625 -3.25 0.4375 -4.71875 1.1875 C -4.859375 1.25 -5.03125 1.3125 -5.140625 1.421875 L -5.171875 1.484375 L -5.1875 1.546875 C -5.171875 1.671875 -5.109375 1.734375 -4.984375 1.75 L -4.921875 1.734375 C -3.609375 1.0625 -2.15625 0.515625 -0.640625 0.28125 C -0.40625 0.234375 -0.171875 0.234375 0.0625 0.1875 L 0.125 0.15625 L 0.15625 0.125 L 0.1875 0.0625 L 0.203125 0 C 0.1875 -0.125 0.125 -0.1875 0 -0.203125 Z M 0 -0.203125 "/>
</symbol>
<symbol overflow="visible" id="glyph1-4">
<path style="stroke:none;" d="M 0 0.203125 C 1.78125 0.015625 3.25 -0.4375 4.71875 -1.1875 C 4.859375 -1.25 5.03125 -1.3125 5.140625 -1.421875 L 5.171875 -1.484375 L 5.1875 -1.546875 C 5.171875 -1.671875 5.109375 -1.734375 4.984375 -1.75 L 4.921875 -1.734375 C 3.609375 -1.0625 2.15625 -0.515625 0.640625 -0.28125 C 0.40625 -0.234375 0.171875 -0.234375 -0.0625 -0.1875 L -0.125 -0.15625 L -0.15625 -0.125 L -0.1875 -0.0625 L -0.203125 0 C -0.1875 0.125 -0.125 0.1875 0 0.203125 Z M 0 0.203125 "/>
</symbol>
<symbol overflow="visible" id="glyph1-5">
<path style="stroke:none;" d="M -0.203125 0 L -0.1875 0.0625 L -0.15625 0.125 C 0.984375 1.46875 2.421875 2.609375 4.03125 3.421875 L 4.09375 3.421875 C 4.21875 3.421875 4.28125 3.34375 4.296875 3.234375 L 4.28125 3.171875 L 4.25 3.109375 L 4.21875 3.078125 C 2.953125 2.4375 1.828125 1.609375 0.84375 0.625 C 0.59375 0.375 0.375 0.09375 0.125 -0.15625 L 0.0625 -0.1875 L 0 -0.203125 C -0.125 -0.1875 -0.1875 -0.125 -0.203125 0 Z M -0.203125 0 "/>
</symbol>
<symbol overflow="visible" id="glyph2-0">
<path style="stroke:none;" d=""/>
</symbol>
<symbol overflow="visible" id="glyph2-1">
<path style="stroke:none;" d="M 0 3.78125 C 0 3.890625 0.09375 3.984375 0.203125 3.984375 C 0.3125 3.984375 0.40625 3.890625 0.40625 3.78125 C 0.40625 1.703125 2.109375 0 4.1875 0 C 4.296875 0 4.390625 -0.09375 4.390625 -0.203125 C 4.390625 -0.3125 4.296875 -0.40625 4.1875 -0.40625 C 1.890625 -0.40625 0 1.484375 0 3.78125 Z M 0 3.78125 "/>
</symbol>
<symbol overflow="visible" id="glyph2-2">
<path style="stroke:none;" d="M 4.1875 0 C 4.296875 0 4.390625 -0.09375 4.390625 -0.203125 C 4.390625 -0.3125 4.296875 -0.40625 4.1875 -0.40625 C 2.109375 -0.40625 0.40625 -2.109375 0.40625 -4.1875 C 0.40625 -4.296875 0.3125 -4.390625 0.203125 -4.390625 C 0.09375 -4.390625 0 -4.296875 0 -4.1875 C 0 -1.890625 1.890625 0 4.1875 0 Z M 4.1875 0 "/>
</symbol>
<symbol overflow="visible" id="glyph2-3">
<path style="stroke:none;" d="M -3.78125 0 C -1.703125 0 0 1.703125 0 3.78125 C 0 3.890625 0.09375 3.984375 0.203125 3.984375 C 0.3125 3.984375 0.40625 3.890625 0.40625 3.78125 C 0.40625 1.484375 -1.484375 -0.40625 -3.78125 -0.40625 C -3.890625 -0.40625 -3.984375 -0.3125 -3.984375 -0.203125 C -3.984375 -0.09375 -3.890625 0 -3.78125 0 Z M -3.78125 0 "/>
</symbol>
<symbol overflow="visible" id="glyph2-4">
<path style="stroke:none;" d="M 0 -4.1875 C 0 -2.109375 -1.703125 -0.40625 -3.78125 -0.40625 C -3.890625 -0.40625 -3.984375 -0.3125 -3.984375 -0.203125 C -3.984375 -0.09375 -3.890625 0 -3.78125 0 C -1.484375 0 0.40625 -1.890625 0.40625 -4.1875 C 0.40625 -4.296875 0.3125 -4.390625 0.203125 -4.390625 C 0.09375 -4.390625 0 -4.296875 0 -4.1875 Z M 0 -4.1875 "/>
</symbol>
<symbol overflow="visible" id="glyph3-0">
<path style="stroke:none;" d=""/>
</symbol>
<symbol overflow="visible" id="glyph3-1">
<path style="stroke:none;" d="M 4.09375 -4.171875 C 3.5 -4.5 3.15625 -4.59375 2.546875 -4.59375 C 1.171875 -4.59375 0.359375 -3.390625 0.359375 -2.21875 C 0.359375 -0.984375 1.265625 0.109375 2.515625 0.109375 C 3.046875 0.109375 3.59375 -0.03125 4.140625 -0.40625 L 4.078125 -1.0625 C 3.5625 -0.671875 3.03125 -0.53125 2.515625 -0.53125 C 1.6875 -0.53125 1.140625 -1.25 1.140625 -2.21875 C 1.140625 -3 1.5 -3.953125 2.5625 -3.953125 C 3.078125 -3.953125 3.421875 -3.875 3.96875 -3.515625 Z M 4.09375 -4.171875 "/>
</symbol>
<symbol overflow="visible" id="glyph3-2">
<path style="stroke:none;" d="M 4.5625 -3.25 C 4.5625 -4.03125 4.515625 -4.96875 4.09375 -5.765625 C 3.6875 -6.515625 3 -6.765625 2.5 -6.765625 C 1.90625 -6.765625 1.203125 -6.484375 0.796875 -5.609375 C 0.46875 -4.875 0.421875 -4.046875 0.421875 -3.25 C 0.421875 -2.46875 0.453125 -1.734375 0.75 -1 C 1.15625 -0.046875 1.90625 0.21875 2.484375 0.21875 C 3.203125 0.21875 3.84375 -0.1875 4.15625 -0.875 C 4.453125 -1.53125 4.5625 -2.1875 4.5625 -3.25 Z M 2.5 -0.390625 C 1.96875 -0.390625 1.5625 -0.765625 1.359375 -1.484375 C 1.203125 -2.046875 1.203125 -2.59375 1.203125 -3.375 C 1.203125 -4 1.203125 -4.59375 1.359375 -5.140625 C 1.421875 -5.328125 1.671875 -6.15625 2.484375 -6.15625 C 3.265625 -6.15625 3.515625 -5.390625 3.59375 -5.21875 C 3.78125 -4.65625 3.78125 -3.984375 3.78125 -3.375 C 3.78125 -2.71875 3.78125 -2.078125 3.59375 -1.453125 C 3.34375 -0.546875 2.8125 -0.390625 2.5 -0.390625 Z M 2.5 -0.390625 "/>
</symbol>
<symbol overflow="visible" id="glyph3-3">
<path style="stroke:none;" d="M 1.734375 -1.875 L 0.5 -0.640625 L 0.5 0 L 4.46875 0 L 4.46875 -0.703125 L 2.65625 -0.703125 C 2.546875 -0.703125 2.421875 -0.703125 2.296875 -0.703125 L 1.21875 -0.703125 C 1.53125 -0.984375 2.296875 -1.71875 2.609375 -2.015625 C 2.796875 -2.1875 3.296875 -2.609375 3.484375 -2.796875 C 3.9375 -3.234375 4.46875 -3.765625 4.46875 -4.609375 C 4.46875 -5.765625 3.671875 -6.765625 2.359375 -6.765625 C 1.21875 -6.765625 0.65625 -5.984375 0.421875 -5.125 C 0.53125 -4.953125 0.59375 -4.890625 0.609375 -4.859375 C 0.625 -4.84375 0.734375 -4.71875 0.828125 -4.578125 C 1.03125 -5.34375 1.3125 -6.125 2.21875 -6.125 C 3.15625 -6.125 3.65625 -5.375 3.65625 -4.59375 C 3.65625 -3.75 3.09375 -3.1875 2.5 -2.578125 Z M 1.734375 -1.875 "/>
</symbol>
<symbol overflow="visible" id="glyph3-4">
<path style="stroke:none;" d="M 2.984375 -6.765625 L 2.78125 -6.765625 C 2.1875 -6.15625 1.359375 -6.125 0.890625 -6.09375 L 0.890625 -5.515625 C 1.21875 -5.53125 1.6875 -5.546875 2.1875 -5.765625 L 2.1875 -0.578125 L 0.953125 -0.578125 L 0.953125 0 L 4.234375 0 L 4.234375 -0.578125 L 2.984375 -0.578125 Z M 2.984375 -6.765625 "/>
</symbol>
<symbol overflow="visible" id="glyph3-5">
<path style="stroke:none;" d="M 1.5625 -2.140625 C 1.5625 -3.125 2.28125 -3.84375 3.265625 -3.875 L 3.265625 -4.53125 C 2.375 -4.53125 1.828125 -4.03125 1.515625 -3.578125 L 1.515625 -4.484375 L 0.8125 -4.484375 L 0.8125 0 L 1.5625 0 Z M 1.5625 -2.140625 "/>
</symbol>
<symbol overflow="visible" id="glyph3-6">
<path style="stroke:none;" d="M 1.625 -6.78125 L 0.734375 -6.78125 L 0.734375 -5.890625 L 1.625 -5.890625 Z M 1.5625 -4.421875 L 0.8125 -4.421875 L 0.8125 0 L 1.5625 0 Z M 1.5625 -4.421875 "/>
</symbol>
<symbol overflow="visible" id="glyph3-7">
<path style="stroke:none;" d="M 1.75 -3.84375 L 3.15625 -3.84375 L 3.15625 -4.421875 L 1.75 -4.421875 L 1.75 -5.6875 L 1.0625 -5.6875 L 1.0625 -4.421875 L 0.1875 -4.421875 L 0.1875 -3.84375 L 1.03125 -3.84375 L 1.03125 -1.1875 C 1.03125 -0.59375 1.171875 0.109375 1.859375 0.109375 C 2.546875 0.109375 3.0625 -0.140625 3.3125 -0.265625 L 3.15625 -0.859375 C 2.890625 -0.640625 2.578125 -0.53125 2.25 -0.53125 C 1.890625 -0.53125 1.75 -0.828125 1.75 -1.359375 Z M 1.75 -3.84375 "/>
</symbol>
<symbol overflow="visible" id="glyph4-0">
<path style="stroke:none;" d=""/>
</symbol>
<symbol overflow="visible" id="glyph4-1">
<path style="stroke:none;" d="M 2.265625 -4.359375 C 2.265625 -4.46875 2.171875 -4.625 1.984375 -4.625 C 1.796875 -4.625 1.59375 -4.4375 1.59375 -4.234375 C 1.59375 -4.125 1.671875 -3.96875 1.875 -3.96875 C 2.0625 -3.96875 2.265625 -4.171875 2.265625 -4.359375 Z M 0.84375 -0.8125 C 0.8125 -0.71875 0.78125 -0.640625 0.78125 -0.515625 C 0.78125 -0.1875 1.046875 0.0625 1.4375 0.0625 C 2.125 0.0625 2.4375 -0.890625 2.4375 -1 C 2.4375 -1.09375 2.34375 -1.09375 2.328125 -1.09375 C 2.234375 -1.09375 2.21875 -1.046875 2.1875 -0.96875 C 2.03125 -0.40625 1.734375 -0.125 1.453125 -0.125 C 1.3125 -0.125 1.28125 -0.21875 1.28125 -0.375 C 1.28125 -0.53125 1.328125 -0.65625 1.390625 -0.8125 C 1.46875 -1 1.546875 -1.1875 1.609375 -1.375 C 1.671875 -1.546875 1.9375 -2.171875 1.953125 -2.265625 C 1.984375 -2.328125 2 -2.40625 2 -2.484375 C 2 -2.8125 1.71875 -3.078125 1.34375 -3.078125 C 0.640625 -3.078125 0.328125 -2.125 0.328125 -2 C 0.328125 -1.921875 0.421875 -1.921875 0.453125 -1.921875 C 0.546875 -1.921875 0.546875 -1.953125 0.578125 -2.03125 C 0.75 -2.625 1.0625 -2.875 1.3125 -2.875 C 1.421875 -2.875 1.484375 -2.828125 1.484375 -2.640625 C 1.484375 -2.46875 1.453125 -2.375 1.28125 -1.9375 Z M 0.84375 -0.8125 "/>
</symbol>
<symbol overflow="visible" id="glyph4-2">
<path style="stroke:none;" d="M 1.84375 -4.625 C 1.84375 -4.640625 1.875 -4.734375 1.875 -4.734375 C 1.875 -4.78125 1.84375 -4.84375 1.75 -4.84375 C 1.609375 -4.84375 1.03125 -4.78125 0.859375 -4.765625 C 0.8125 -4.765625 0.703125 -4.75 0.703125 -4.609375 C 0.703125 -4.515625 0.8125 -4.515625 0.890625 -4.515625 C 1.21875 -4.515625 1.21875 -4.453125 1.21875 -4.40625 C 1.21875 -4.359375 1.15625 -4.078125 1.109375 -3.921875 L 0.953125 -3.28125 C 0.890625 -3.03125 0.515625 -1.515625 0.5 -1.421875 C 0.453125 -1.25 0.453125 -1.15625 0.453125 -1.078125 C 0.453125 -0.375 0.90625 0.0625 1.484375 0.0625 C 2.359375 0.0625 3.28125 -0.875 3.28125 -1.90625 C 3.28125 -2.71875 2.71875 -3.078125 2.234375 -3.078125 C 1.875 -3.078125 1.5625 -2.875 1.359375 -2.6875 Z M 1.484375 -0.125 C 1.15625 -0.125 0.953125 -0.421875 0.953125 -0.84375 C 0.953125 -1.09375 1.015625 -1.328125 1.21875 -2.125 C 1.25 -2.25 1.25 -2.265625 1.390625 -2.421875 C 1.65625 -2.71875 1.96875 -2.875 2.21875 -2.875 C 2.484375 -2.875 2.71875 -2.671875 2.71875 -2.203125 C 2.71875 -1.921875 2.578125 -1.203125 2.359375 -0.796875 C 2.1875 -0.453125 1.84375 -0.125 1.484375 -0.125 Z M 1.484375 -0.125 "/>
</symbol>
<symbol overflow="visible" id="glyph4-3">
<path style="stroke:none;" d="M 2.1875 -4.625 C 2.1875 -4.640625 2.203125 -4.734375 2.203125 -4.734375 C 2.203125 -4.78125 2.1875 -4.84375 2.09375 -4.84375 C 1.953125 -4.84375 1.375 -4.78125 1.203125 -4.765625 C 1.15625 -4.765625 1.046875 -4.75 1.046875 -4.609375 C 1.046875 -4.515625 1.15625 -4.515625 1.234375 -4.515625 C 1.5625 -4.515625 1.5625 -4.453125 1.5625 -4.40625 C 1.5625 -4.359375 1.546875 -4.3125 1.546875 -4.25 L 0.5625 -0.3125 C 0.515625 -0.1875 0.515625 -0.171875 0.515625 -0.15625 C 0.515625 -0.046875 0.609375 0.0625 0.765625 0.0625 C 0.953125 0.0625 1.03125 -0.0625 1.078125 -0.21875 C 1.09375 -0.25 1.390625 -1.484375 1.421875 -1.578125 C 1.921875 -1.53125 2.3125 -1.359375 2.3125 -1 C 2.3125 -0.96875 2.3125 -0.9375 2.296875 -0.859375 C 2.265625 -0.765625 2.265625 -0.71875 2.265625 -0.640625 C 2.265625 -0.15625 2.671875 0.0625 3.015625 0.0625 C 3.6875 0.0625 3.890625 -0.984375 3.890625 -1 C 3.890625 -1.09375 3.8125 -1.09375 3.78125 -1.09375 C 3.6875 -1.09375 3.671875 -1.046875 3.640625 -0.921875 C 3.5625 -0.625 3.375 -0.125 3.03125 -0.125 C 2.84375 -0.125 2.78125 -0.296875 2.78125 -0.484375 C 2.78125 -0.609375 2.78125 -0.625 2.828125 -0.796875 C 2.84375 -0.828125 2.859375 -0.9375 2.859375 -1.015625 C 2.859375 -1.640625 2.03125 -1.734375 1.734375 -1.75 C 1.9375 -1.875 2.1875 -2.109375 2.3125 -2.21875 C 2.671875 -2.546875 3.015625 -2.875 3.40625 -2.875 C 3.484375 -2.875 3.578125 -2.859375 3.640625 -2.78125 C 3.34375 -2.734375 3.28125 -2.5 3.28125 -2.390625 C 3.28125 -2.25 3.390625 -2.140625 3.546875 -2.140625 C 3.75 -2.140625 3.953125 -2.296875 3.953125 -2.578125 C 3.953125 -2.8125 3.78125 -3.078125 3.421875 -3.078125 C 3.015625 -3.078125 2.65625 -2.78125 2.296875 -2.453125 C 2 -2.1875 1.78125 -1.96875 1.484375 -1.84375 Z M 2.1875 -4.625 "/>
</symbol>
<symbol overflow="visible" id="glyph5-0">
<path style="stroke:none;" d=""/>
</symbol>
<symbol overflow="visible" id="glyph5-1">
<path style="stroke:none;" d="M 1.96875 -3.109375 C 1.96875 -3.234375 1.890625 -3.328125 1.75 -3.328125 C 1.609375 -3.328125 1.453125 -3.1875 1.453125 -3.03125 C 1.453125 -2.890625 1.5625 -2.8125 1.671875 -2.8125 C 1.828125 -2.8125 1.96875 -2.953125 1.96875 -3.109375 Z M 2.203125 -0.71875 C 2.203125 -0.78125 2.125 -0.78125 2.109375 -0.78125 C 2.015625 -0.78125 2.015625 -0.765625 1.984375 -0.671875 C 1.90625 -0.40625 1.671875 -0.109375 1.421875 -0.109375 C 1.3125 -0.109375 1.28125 -0.1875 1.28125 -0.296875 C 1.28125 -0.40625 1.296875 -0.46875 1.34375 -0.5625 C 1.375 -0.65625 1.421875 -0.75 1.453125 -0.828125 C 1.46875 -0.875 1.65625 -1.328125 1.734375 -1.515625 C 1.765625 -1.609375 1.796875 -1.6875 1.796875 -1.765625 C 1.796875 -2 1.5625 -2.203125 1.25 -2.203125 C 0.734375 -2.203125 0.453125 -1.5625 0.453125 -1.4375 C 0.453125 -1.359375 0.53125 -1.359375 0.5625 -1.359375 C 0.640625 -1.359375 0.640625 -1.390625 0.671875 -1.453125 C 0.78125 -1.8125 1.015625 -2.03125 1.234375 -2.03125 C 1.328125 -2.03125 1.390625 -1.984375 1.390625 -1.84375 C 1.390625 -1.828125 1.390625 -1.765625 1.359375 -1.671875 C 1.328125 -1.578125 1.09375 -1.046875 1.03125 -0.875 C 0.984375 -0.78125 0.984375 -0.78125 0.921875 -0.609375 C 0.890625 -0.53125 0.859375 -0.46875 0.859375 -0.390625 C 0.859375 -0.125 1.109375 0.0625 1.40625 0.0625 C 1.921875 0.0625 2.203125 -0.59375 2.203125 -0.71875 Z M 2.203125 -0.71875 "/>
</symbol>
<symbol overflow="visible" id="glyph6-0">
<path style="stroke:none;" d=""/>
</symbol>
<symbol overflow="visible" id="glyph6-1">
<path style="stroke:none;" d="M 1.53125 -2.59375 C 1.53125 -2.84375 1.328125 -3 1.125 -3 C 0.890625 -3 0.71875 -2.8125 0.71875 -2.609375 C 0.71875 -2.359375 0.921875 -2.203125 1.125 -2.203125 C 1.359375 -2.203125 1.53125 -2.390625 1.53125 -2.59375 Z M 1.53125 -0.390625 C 1.53125 -0.640625 1.328125 -0.796875 1.125 -0.796875 C 0.890625 -0.796875 0.71875 -0.609375 0.71875 -0.40625 C 0.71875 -0.15625 0.921875 0 1.125 0 C 1.359375 0 1.53125 -0.1875 1.53125 -0.390625 Z M 1.53125 -0.390625 "/>
</symbol>
<symbol overflow="visible" id="glyph6-2">
<path style="stroke:none;" d="M 5.359375 -2.34375 C 5.453125 -2.34375 5.609375 -2.34375 5.609375 -2.515625 C 5.609375 -2.6875 5.453125 -2.6875 5.359375 -2.6875 L 0.75 -2.6875 C 0.65625 -2.6875 0.484375 -2.6875 0.484375 -2.515625 C 0.484375 -2.34375 0.640625 -2.34375 0.75 -2.34375 Z M 5.359375 -0.8125 C 5.453125 -0.8125 5.609375 -0.8125 5.609375 -0.96875 C 5.609375 -1.15625 5.453125 -1.15625 5.359375 -1.15625 L 0.75 -1.15625 C 0.640625 -1.15625 0.484375 -1.15625 0.484375 -0.96875 C 0.484375 -0.8125 0.65625 -0.8125 0.75 -0.8125 Z M 5.359375 -0.8125 "/>
</symbol>
<symbol overflow="visible" id="glyph7-0">
<path style="stroke:none;" d=""/>
</symbol>
<symbol overflow="visible" id="glyph7-1">
<path style="stroke:none;" d="M 1.328125 -2.65625 L 2.125 -2.65625 L 2.125 -3.09375 L 1.296875 -3.09375 L 1.296875 -3.890625 C 1.296875 -4.375 1.734375 -4.453125 1.96875 -4.453125 C 2.125 -4.453125 2.3125 -4.421875 2.5625 -4.328125 L 2.5625 -4.84375 C 2.390625 -4.875 2.171875 -4.90625 1.984375 -4.90625 C 1.265625 -4.90625 0.734375 -4.390625 0.734375 -3.703125 L 0.734375 -3.09375 L 0.203125 -3.09375 L 0.203125 -2.65625 L 0.734375 -2.65625 L 0.734375 0 L 1.328125 0 Z M 1.328125 -2.65625 "/>
</symbol>
<symbol overflow="visible" id="glyph7-2">
<path style="stroke:none;" d="M 2.96875 -2 C 2.96875 -2.71875 2.421875 -3.203125 1.734375 -3.203125 C 1.296875 -3.203125 0.96875 -3.109375 0.578125 -2.90625 L 0.609375 -2.390625 C 0.84375 -2.546875 1.1875 -2.75 1.734375 -2.75 C 2.046875 -2.75 2.359375 -2.515625 2.359375 -2 L 2.359375 -1.71875 C 1.328125 -1.6875 0.3125 -1.46875 0.3125 -0.828125 C 0.3125 -0.46875 0.546875 0.0625 1.15625 0.0625 C 1.46875 0.0625 2.015625 0 2.390625 -0.265625 L 2.390625 0 L 2.96875 0 Z M 2.359375 -0.984375 C 2.359375 -0.84375 2.359375 -0.671875 2.125 -0.515625 C 1.890625 -0.390625 1.625 -0.390625 1.546875 -0.390625 C 1.15625 -0.390625 0.875 -0.5625 0.875 -0.828125 C 0.875 -1.28125 2.046875 -1.3125 2.359375 -1.328125 Z M 2.359375 -0.984375 "/>
</symbol>
<symbol overflow="visible" id="glyph7-3">
<path style="stroke:none;" d="M 1.171875 -4.84375 L 0.578125 -4.84375 L 0.578125 0 L 1.171875 0 Z M 1.171875 -4.84375 "/>
</symbol>
<symbol overflow="visible" id="glyph7-4">
<path style="stroke:none;" d="M 2.546875 -2.984375 C 2.0625 -3.171875 1.71875 -3.203125 1.46875 -3.203125 C 1.296875 -3.203125 0.25 -3.203125 0.25 -2.265625 C 0.25 -1.9375 0.421875 -1.765625 0.515625 -1.671875 C 0.765625 -1.4375 1.046875 -1.375 1.421875 -1.3125 C 1.75 -1.25 2.125 -1.171875 2.125 -0.84375 C 2.125 -0.40625 1.546875 -0.40625 1.453125 -0.40625 C 1 -0.40625 0.578125 -0.5625 0.3125 -0.765625 L 0.203125 -0.234375 C 0.453125 -0.125 0.875 0.0625 1.453125 0.0625 C 1.765625 0.0625 2.0625 0.015625 2.328125 -0.171875 C 2.578125 -0.359375 2.671875 -0.671875 2.671875 -0.90625 C 2.671875 -1.03125 2.65625 -1.296875 2.359375 -1.5625 C 2.109375 -1.796875 1.859375 -1.84375 1.515625 -1.90625 C 1.109375 -1.984375 0.78125 -2.046875 0.78125 -2.359375 C 0.78125 -2.75 1.296875 -2.75 1.40625 -2.75 C 1.796875 -2.75 2.109375 -2.671875 2.453125 -2.484375 Z M 2.546875 -2.984375 "/>
</symbol>
<symbol overflow="visible" id="glyph7-5">
<path style="stroke:none;" d="M 3 -0.765625 C 2.609375 -0.484375 2.171875 -0.390625 1.875 -0.390625 C 1.265625 -0.390625 0.796875 -0.890625 0.78125 -1.53125 L 3.0625 -1.53125 C 3.0625 -1.84375 3.03125 -2.3125 2.765625 -2.703125 C 2.515625 -3.0625 2.09375 -3.203125 1.75 -3.203125 C 0.90625 -3.203125 0.25 -2.453125 0.25 -1.5625 C 0.25 -0.671875 0.9375 0.0625 1.859375 0.0625 C 2.265625 0.0625 2.6875 -0.046875 3.03125 -0.265625 Z M 0.828125 -1.9375 C 0.984375 -2.5 1.40625 -2.734375 1.75 -2.734375 C 2.0625 -2.734375 2.515625 -2.59375 2.640625 -1.9375 Z M 0.828125 -1.9375 "/>
</symbol>
<symbol overflow="visible" id="glyph7-6">
<path style="stroke:none;" d="M 1.3125 -2.65625 L 2.34375 -2.65625 L 2.34375 -3.09375 L 1.3125 -3.09375 L 1.3125 -3.984375 L 0.78125 -3.984375 L 0.78125 -3.09375 L 0.140625 -3.09375 L 0.140625 -2.65625 L 0.75 -2.65625 L 0.75 -0.890625 C 0.75 -0.421875 0.875 0.0625 1.375 0.0625 C 1.875 0.0625 2.265625 -0.09375 2.46875 -0.1875 L 2.34375 -0.640625 C 2.125 -0.46875 1.875 -0.40625 1.671875 -0.40625 C 1.390625 -0.40625 1.3125 -0.703125 1.3125 -1.015625 Z M 1.3125 -2.65625 "/>
</symbol>
<symbol overflow="visible" id="glyph7-7">
<path style="stroke:none;" d="M 1.171875 -1.484375 C 1.171875 -2.234375 1.8125 -2.640625 2.421875 -2.640625 L 2.421875 -3.15625 C 1.828125 -3.15625 1.40625 -2.875 1.125 -2.5 L 1.125 -3.140625 L 0.59375 -3.140625 L 0.59375 0 L 1.171875 0 Z M 1.171875 -1.484375 "/>
</symbol>
<symbol overflow="visible" id="glyph7-8">
<path style="stroke:none;" d="M 3.234375 -3.09375 L 2.640625 -3.09375 L 2.640625 -1.078125 C 2.640625 -0.515625 2.15625 -0.34375 1.75 -0.34375 C 1.234375 -0.34375 1.1875 -0.484375 1.1875 -0.796875 L 1.1875 -3.09375 L 0.578125 -3.09375 L 0.578125 -0.765625 C 0.578125 -0.140625 0.84375 0.0625 1.34375 0.0625 C 1.625 0.0625 2.234375 0.015625 2.65625 -0.328125 L 2.65625 0 L 3.234375 0 Z M 3.234375 -3.09375 "/>
</symbol>
<symbol overflow="visible" id="glyph8-0">
<path style="stroke:none;" d=""/>
</symbol>
<symbol overflow="visible" id="glyph8-1">
<path style="stroke:none;" d="M 4.828125 -2.25 C 4.828125 -2.484375 4.78125 -2.515625 4.546875 -2.515625 L 0.8125 -2.515625 C 0.703125 -2.515625 0.53125 -2.515625 0.53125 -2.34375 C 0.53125 -2.171875 0.703125 -2.171875 0.8125 -2.171875 L 4.484375 -2.171875 L 4.484375 -0.859375 C 4.484375 -0.765625 4.484375 -0.59375 4.640625 -0.59375 C 4.828125 -0.59375 4.828125 -0.75 4.828125 -0.859375 Z M 4.828125 -2.25 "/>
</symbol>
<symbol overflow="visible" id="glyph8-2">
<path style="stroke:none;" d="M 4.96875 -4.65625 C 5.03125 -4.75 5.03125 -4.765625 5.03125 -4.796875 C 5.03125 -4.890625 4.96875 -4.96875 4.859375 -4.96875 C 4.765625 -4.96875 4.71875 -4.90625 4.6875 -4.84375 L 1.234375 1.171875 C 1.1875 1.25 1.1875 1.28125 1.1875 1.3125 C 1.1875 1.40625 1.25 1.484375 1.359375 1.484375 C 1.453125 1.484375 1.5 1.421875 1.53125 1.359375 Z M 4.96875 -4.65625 "/>
</symbol>
<symbol overflow="visible" id="glyph9-0">
<path style="stroke:none;" d=""/>
</symbol>
<symbol overflow="visible" id="glyph9-1">
<path style="stroke:none;" d="M 4.390625 -1.109375 C 4.46875 -1.109375 4.59375 -1.109375 4.59375 -1.25 C 4.59375 -1.390625 4.46875 -1.390625 4.390625 -1.390625 L 1.015625 -1.390625 C 0.9375 -1.390625 0.796875 -1.390625 0.796875 -1.25 C 0.796875 -1.109375 0.9375 -1.109375 1.015625 -1.109375 Z M 4.390625 -1.109375 "/>
</symbol>
<symbol overflow="visible" id="glyph10-0">
<path style="stroke:none;" d=""/>
</symbol>
<symbol overflow="visible" id="glyph10-1">
<path style="stroke:none;" d="M 1.984375 -3.171875 C 1.984375 -3.3125 1.96875 -3.3125 1.796875 -3.3125 C 1.453125 -3 0.890625 -3 0.796875 -3 L 0.71875 -3 L 0.71875 -2.78125 L 0.796875 -2.78125 C 0.90625 -2.78125 1.234375 -2.796875 1.53125 -2.921875 L 1.53125 -0.421875 C 1.53125 -0.28125 1.53125 -0.21875 1 -0.21875 L 0.75 -0.21875 L 0.75 0 C 1.015625 -0.015625 1.46875 -0.015625 1.75 -0.015625 C 2.046875 -0.015625 2.484375 -0.015625 2.765625 0 L 2.765625 -0.21875 L 2.515625 -0.21875 C 1.984375 -0.21875 1.984375 -0.28125 1.984375 -0.421875 Z M 1.984375 -3.171875 "/>
</symbol>
</g>
</defs>
<g id="surface1">
<g style="fill:rgb(0%,0%,0%);fill-opacity:1;">
  <use xlink:href="#glyph0-1" x="105.916" y="29.115"/>
</g>
<g style="fill:rgb(0%,0%,0%);fill-opacity:1;">
  <use xlink:href="#glyph1-1" x="105.916" y="29.115"/>
</g>
<path style="fill:none;stroke-width:0.398;stroke-linecap:round;stroke-linejoin:round;stroke:rgb(0%,0%,0%);stroke-opacity:1;stroke-miterlimit:10;" d="M 92.018062 -4.232562 L 92.018062 -26.869281 " transform="matrix(1,0,0,-1,13.896,2.244)"/>
<g style="fill:rgb(0%,0%,0%);fill-opacity:1;">
  <use xlink:href="#glyph2-1" x="96.166" y="32.502"/>
</g>
<path style="fill:none;stroke-width:0.398;stroke-linecap:butt;stroke-linejoin:miter;stroke:rgb(0%,0%,0%);stroke-opacity:1;stroke-miterlimit:10;" d="M -0.00171875 0.00025 L -0.00171875 6.429938 " transform="matrix(1,0,0,-1,96.365,42.719)"/>
<g style="fill:rgb(0%,0%,0%);fill-opacity:1;">
  <use xlink:href="#glyph2-2" x="96.166" y="46.904"/>
</g>
<g style="fill:rgb(0%,0%,0%);fill-opacity:1;">
  <use xlink:href="#glyph2-3" x="115.268" y="32.502"/>
</g>
<path style="fill:none;stroke-width:0.398;stroke-linecap:butt;stroke-linejoin:miter;stroke:rgb(0%,0%,0%);stroke-opacity:1;stroke-miterlimit:10;" d="M 0.00175 0.00025 L 0.00175 6.429938 " transform="matrix(1,0,0,-1,115.467,42.719)"/>
<g style="fill:rgb(0%,0%,0%);fill-opacity:1;">
  <use xlink:href="#glyph2-4" x="115.268" y="46.904"/>
</g>
<path style="fill:none;stroke-width:0.398;stroke-linecap:butt;stroke-linejoin:miter;stroke:rgb(0%,0%,0%);stroke-opacity:1;stroke-miterlimit:10;" d="M 0.0015625 0.001875 L 11.130469 0.001875 " transform="matrix(1,0,0,-1,100.35,46.705)"/>
<path style="fill:none;stroke-width:0.398;stroke-linecap:butt;stroke-linejoin:miter;stroke:rgb(0%,0%,0%);stroke-opacity:1;stroke-miterlimit:10;" d="M 0.0015625 -0.0016875 L 11.130469 -0.0016875 " transform="matrix(1,0,0,-1,100.35,32.303)"/>
<g style="fill:rgb(0%,0%,0%);fill-opacity:1;">
  <use xlink:href="#glyph3-1" x="99.553" y="42.022"/>
  <use xlink:href="#glyph3-2" x="103.980379" y="42.022"/>
</g>
<g style="fill:rgb(0%,0%,0%);fill-opacity:1;">
  <use xlink:href="#glyph4-1" x="108.962" y="43.516"/>
</g>
<g style="fill:rgb(0%,0%,0%);fill-opacity:1;">
  <use xlink:href="#glyph4-2" x="74.171" y="63.799"/>
</g>
<g style="fill:rgb(0%,0%,0%);fill-opacity:1;">
  <use xlink:href="#glyph5-1" x="77.675" y="64.795"/>
</g>
<g style="fill:rgb(0%,0%,0%);fill-opacity:1;">
  <use xlink:href="#glyph6-1" x="80.831" y="63.799"/>
  <use xlink:href="#glyph6-2" x="83.086327" y="63.799"/>
</g>
<g style="fill:rgb(0%,0%,0%);fill-opacity:1;">
  <use xlink:href="#glyph7-1" x="89.202" y="63.799"/>
  <use xlink:href="#glyph7-2" x="91.466393" y="63.799"/>
  <use xlink:href="#glyph7-3" x="95.02582" y="63.799"/>
  <use xlink:href="#glyph7-4" x="96.793679" y="63.799"/>
  <use xlink:href="#glyph7-5" x="99.634107" y="63.799"/>
</g>
<g style="fill:rgb(0%,0%,0%);fill-opacity:1;">
  <use xlink:href="#glyph0-1" x="105.916" y="73.803"/>
</g>
<g style="fill:rgb(0%,0%,0%);fill-opacity:1;">
  <use xlink:href="#glyph1-1" x="105.916" y="73.803"/>
</g>
<path style="fill:none;stroke-width:0.398;stroke-linecap:round;stroke-linejoin:round;stroke:rgb(0%,0%,0%);stroke-opacity:1;stroke-miterlimit:10;" d="M 92.018062 -47.650531 L 92.018062 -71.560687 " transform="matrix(1,0,0,-1,13.896,2.244)"/>
<g style="fill:rgb(0%,0%,0%);fill-opacity:1;">
  <use xlink:href="#glyph2-1" x="4.146" y="77.19"/>
</g>
<path style="fill:none;stroke-width:0.398;stroke-linecap:butt;stroke-linejoin:miter;stroke:rgb(0%,0%,0%);stroke-opacity:1;stroke-miterlimit:10;" d="M -0.00125 0.00075 L -0.00125 6.430438 " transform="matrix(1,0,0,-1,4.345,87.407)"/>
<g style="fill:rgb(0%,0%,0%);fill-opacity:1;">
  <use xlink:href="#glyph2-2" x="4.146" y="91.592"/>
</g>
<g style="fill:rgb(0%,0%,0%);fill-opacity:1;">
  <use xlink:href="#glyph2-3" x="23.248" y="77.19"/>
</g>
<path style="fill:none;stroke-width:0.398;stroke-linecap:butt;stroke-linejoin:miter;stroke:rgb(0%,0%,0%);stroke-opacity:1;stroke-miterlimit:10;" d="M -0.0016875 0.00075 L -0.0016875 6.430438 " transform="matrix(1,0,0,-1,23.447,87.407)"/>
<g style="fill:rgb(0%,0%,0%);fill-opacity:1;">
  <use xlink:href="#glyph2-4" x="23.248" y="91.592"/>
</g>
<path style="fill:none;stroke-width:0.398;stroke-linecap:butt;stroke-linejoin:miter;stroke:rgb(0%,0%,0%);stroke-opacity:1;stroke-miterlimit:10;" d="M -0.001875 0.001375 L 11.130937 0.001375 " transform="matrix(1,0,0,-1,8.33,91.392)"/>
<path style="fill:none;stroke-width:0.398;stroke-linecap:butt;stroke-linejoin:miter;stroke:rgb(0%,0%,0%);stroke-opacity:1;stroke-miterlimit:10;" d="M -0.001875 -0.0011875 L 11.130937 -0.0011875 " transform="matrix(1,0,0,-1,8.33,76.991)"/>
<g style="fill:rgb(0%,0%,0%);fill-opacity:1;">
  <use xlink:href="#glyph3-1" x="7.533" y="86.71"/>
  <use xlink:href="#glyph3-3" x="11.960379" y="86.71"/>
</g>
<g style="fill:rgb(0%,0%,0%);fill-opacity:1;">
  <use xlink:href="#glyph4-1" x="16.942" y="88.204"/>
</g>
<g style="fill:rgb(0%,0%,0%);fill-opacity:1;">
  <use xlink:href="#glyph8-1" x="3.489" y="60.383"/>
</g>
<g style="fill:rgb(0%,0%,0%);fill-opacity:1;">
  <use xlink:href="#glyph4-2" x="8.858" y="60.383"/>
</g>
<g style="fill:rgb(0%,0%,0%);fill-opacity:1;">
  <use xlink:href="#glyph5-1" x="12.361" y="61.38"/>
</g>
<g style="fill:rgb(0%,0%,0%);fill-opacity:1;">
  <use xlink:href="#glyph9-1" x="15.019" y="61.38"/>
</g>
<g style="fill:rgb(0%,0%,0%);fill-opacity:1;">
  <use xlink:href="#glyph10-1" x="20.415" y="61.38"/>
</g>
<g style="fill:rgb(0%,0%,0%);fill-opacity:1;">
  <use xlink:href="#glyph0-2" x="20.902" y="73.804"/>
</g>
<g style="fill:rgb(0%,0%,0%);fill-opacity:1;">
  <use xlink:href="#glyph1-2" x="20.902" y="73.804"/>
</g>
<path style="fill:none;stroke-width:0.398;stroke-linecap:round;stroke-linejoin:round;stroke:rgb(0%,0%,0%);stroke-opacity:1;stroke-miterlimit:10;" d="M -7.005375 -71.552875 C -10.044438 -60.088031 10.053219 -60.088031 7.006344 -71.560687 " transform="matrix(1,0,0,-1,13.896,2.244)"/>
<g style="fill:rgb(0%,0%,0%);fill-opacity:1;">
  <use xlink:href="#glyph4-2" x="43.259" y="79.404"/>
</g>
<g style="fill:rgb(0%,0%,0%);fill-opacity:1;">
  <use xlink:href="#glyph5-1" x="46.762" y="80.4"/>
</g>
<g style="fill:rgb(0%,0%,0%);fill-opacity:1;">
  <use xlink:href="#glyph9-1" x="49.42" y="80.4"/>
</g>
<g style="fill:rgb(0%,0%,0%);fill-opacity:1;">
  <use xlink:href="#glyph10-1" x="54.816" y="80.4"/>
</g>
<g style="fill:rgb(0%,0%,0%);fill-opacity:1;">
  <use xlink:href="#glyph6-1" x="58.705" y="79.404"/>
</g>
<g style="fill:rgb(0%,0%,0%);fill-opacity:1;">
  <use xlink:href="#glyph4-3" x="60.96" y="79.404"/>
</g>
<g style="fill:rgb(0%,0%,0%);fill-opacity:1;">
  <use xlink:href="#glyph6-1" x="65.364" y="79.404"/>
  <use xlink:href="#glyph6-2" x="67.619327" y="79.404"/>
</g>
<g style="fill:rgb(0%,0%,0%);fill-opacity:1;">
  <use xlink:href="#glyph4-1" x="73.735" y="79.404"/>
</g>
<g style="fill:rgb(0%,0%,0%);fill-opacity:1;">
  <use xlink:href="#glyph0-3" x="93.177" y="84.219"/>
</g>
<g style="fill:rgb(0%,0%,0%);fill-opacity:1;">
  <use xlink:href="#glyph1-3" x="93.177" y="84.219"/>
</g>
<path style="fill:none;stroke-width:0.398;stroke-linecap:round;stroke-linejoin:round;stroke:rgb(0%,0%,0%);stroke-opacity:1;stroke-miterlimit:10;" d="M 12.740719 -81.97475 L 79.279781 -81.97475 " transform="matrix(1,0,0,-1,13.896,2.244)"/>
<g style="fill:rgb(0%,0%,0%);fill-opacity:1;">
  <use xlink:href="#glyph2-1" x="96.166" y="77.19"/>
</g>
<path style="fill:none;stroke-width:0.398;stroke-linecap:butt;stroke-linejoin:miter;stroke:rgb(0%,0%,0%);stroke-opacity:1;stroke-miterlimit:10;" d="M -0.00171875 0.00075 L -0.00171875 6.430438 " transform="matrix(1,0,0,-1,96.365,87.407)"/>
<g style="fill:rgb(0%,0%,0%);fill-opacity:1;">
  <use xlink:href="#glyph2-2" x="96.166" y="91.592"/>
</g>
<g style="fill:rgb(0%,0%,0%);fill-opacity:1;">
  <use xlink:href="#glyph2-3" x="115.268" y="77.19"/>
</g>
<path style="fill:none;stroke-width:0.398;stroke-linecap:butt;stroke-linejoin:miter;stroke:rgb(0%,0%,0%);stroke-opacity:1;stroke-miterlimit:10;" d="M 0.00175 0.00075 L 0.00175 6.430438 " transform="matrix(1,0,0,-1,115.467,87.407)"/>
<g style="fill:rgb(0%,0%,0%);fill-opacity:1;">
  <use xlink:href="#glyph2-4" x="115.268" y="91.592"/>
</g>
<path style="fill:none;stroke-width:0.398;stroke-linecap:butt;stroke-linejoin:miter;stroke:rgb(0%,0%,0%);stroke-opacity:1;stroke-miterlimit:10;" d="M 0.0015625 0.001375 L 11.130469 0.001375 " transform="matrix(1,0,0,-1,100.35,91.392)"/>
<path style="fill:none;stroke-width:0.398;stroke-linecap:butt;stroke-linejoin:miter;stroke:rgb(0%,0%,0%);stroke-opacity:1;stroke-miterlimit:10;" d="M 0.0015625 -0.0011875 L 11.130469 -0.0011875 " transform="matrix(1,0,0,-1,100.35,76.991)"/>
<g style="fill:rgb(0%,0%,0%);fill-opacity:1;">
  <use xlink:href="#glyph3-1" x="99.553" y="86.71"/>
  <use xlink:href="#glyph3-4" x="103.980379" y="86.71"/>
</g>
<g style="fill:rgb(0%,0%,0%);fill-opacity:1;">
  <use xlink:href="#glyph4-1" x="108.962" y="88.204"/>
</g>
<g style="fill:rgb(0%,0%,0%);fill-opacity:1;">
  <use xlink:href="#glyph4-3" x="89.589" y="109.044"/>
</g>
<g style="fill:rgb(0%,0%,0%);fill-opacity:1;">
  <use xlink:href="#glyph6-2" x="93.993" y="109.044"/>
</g>
<g style="fill:rgb(0%,0%,0%);fill-opacity:1;">
  <use xlink:href="#glyph4-1" x="100.109" y="109.044"/>
</g>
<g style="fill:rgb(0%,0%,0%);fill-opacity:1;">
  <use xlink:href="#glyph0-1" x="105.916" y="118.372"/>
</g>
<g style="fill:rgb(0%,0%,0%);fill-opacity:1;">
  <use xlink:href="#glyph1-1" x="105.916" y="118.372"/>
</g>
<path style="fill:none;stroke-width:0.398;stroke-linecap:round;stroke-linejoin:round;stroke:rgb(0%,0%,0%);stroke-opacity:1;stroke-miterlimit:10;" d="M 92.018062 -92.338031 L 92.018062 -116.127094 " transform="matrix(1,0,0,-1,13.896,2.244)"/>
<g style="fill:rgb(0%,0%,0%);fill-opacity:1;">
  <use xlink:href="#glyph4-3" x="53.237" y="95.483"/>
</g>
<g style="fill:rgb(0%,0%,0%);fill-opacity:1;">
  <use xlink:href="#glyph8-2" x="57.641" y="95.483"/>
</g>
<g style="fill:rgb(0%,0%,0%);fill-opacity:1;">
  <use xlink:href="#glyph6-2" x="57.641" y="95.483"/>
</g>
<g style="fill:rgb(0%,0%,0%);fill-opacity:1;">
  <use xlink:href="#glyph4-1" x="63.757" y="95.483"/>
</g>
<g style="fill:rgb(0%,0%,0%);fill-opacity:1;">
  <use xlink:href="#glyph0-4" x="26.635" y="87.651"/>
</g>
<g style="fill:rgb(0%,0%,0%);fill-opacity:1;">
  <use xlink:href="#glyph1-4" x="26.635" y="87.651"/>
</g>
<path style="fill:none;stroke-width:0.398;stroke-linecap:round;stroke-linejoin:round;stroke:rgb(0%,0%,0%);stroke-opacity:1;stroke-miterlimit:10;" d="M 79.279781 -85.408344 L 12.740719 -85.408344 " transform="matrix(1,0,0,-1,13.896,2.244)"/>
<g style="fill:rgb(0%,0%,0%);fill-opacity:1;">
  <use xlink:href="#glyph2-1" x="93.966" y="121.759"/>
</g>
<path style="fill:none;stroke-width:0.398;stroke-linecap:butt;stroke-linejoin:miter;stroke:rgb(0%,0%,0%);stroke-opacity:1;stroke-miterlimit:10;" d="M -0.0009375 -0.00084375 L -0.0009375 6.667125 " transform="matrix(1,0,0,-1,94.165,132.214)"/>
<g style="fill:rgb(0%,0%,0%);fill-opacity:1;">
  <use xlink:href="#glyph2-2" x="93.966" y="136.398"/>
</g>
<g style="fill:rgb(0%,0%,0%);fill-opacity:1;">
  <use xlink:href="#glyph2-3" x="117.468" y="121.759"/>
</g>
<path style="fill:none;stroke-width:0.398;stroke-linecap:butt;stroke-linejoin:miter;stroke:rgb(0%,0%,0%);stroke-opacity:1;stroke-miterlimit:10;" d="M 0.00096875 -0.00084375 L 0.00096875 6.667125 " transform="matrix(1,0,0,-1,117.667,132.214)"/>
<g style="fill:rgb(0%,0%,0%);fill-opacity:1;">
  <use xlink:href="#glyph2-4" x="117.468" y="136.398"/>
</g>
<path style="fill:none;stroke-width:0.398;stroke-linecap:butt;stroke-linejoin:miter;stroke:rgb(0%,0%,0%);stroke-opacity:1;stroke-miterlimit:10;" d="M -0.0015625 -0.00021875 L 15.533594 -0.00021875 " transform="matrix(1,0,0,-1,98.15,136.199)"/>
<path style="fill:none;stroke-width:0.398;stroke-linecap:butt;stroke-linejoin:miter;stroke:rgb(0%,0%,0%);stroke-opacity:1;stroke-miterlimit:10;" d="M -0.0015625 0.00140625 L 15.533594 0.00140625 " transform="matrix(1,0,0,-1,98.15,121.56)"/>
<g style="fill:rgb(0%,0%,0%);fill-opacity:1;">
  <use xlink:href="#glyph3-1" x="97.353" y="131.517"/>
  <use xlink:href="#glyph3-5" x="101.780379" y="131.517"/>
  <use xlink:href="#glyph3-6" x="105.1846" y="131.517"/>
  <use xlink:href="#glyph3-7" x="107.564665" y="131.517"/>
</g>
<g style="fill:rgb(0%,0%,0%);fill-opacity:1;">
  <use xlink:href="#glyph4-1" x="111.163" y="133.011"/>
</g>
<g style="fill:rgb(0%,0%,0%);fill-opacity:1;">
  <use xlink:href="#glyph4-2" x="128.83" y="86.202"/>
</g>
<g style="fill:rgb(0%,0%,0%);fill-opacity:1;">
  <use xlink:href="#glyph5-1" x="132.334" y="87.198"/>
</g>
<g style="fill:rgb(0%,0%,0%);fill-opacity:1;">
  <use xlink:href="#glyph6-1" x="135.49" y="86.202"/>
  <use xlink:href="#glyph6-2" x="137.745327" y="86.202"/>
</g>
<g style="fill:rgb(0%,0%,0%);fill-opacity:1;">
  <use xlink:href="#glyph7-6" x="143.861" y="86.202"/>
  <use xlink:href="#glyph7-7" x="146.536847" y="86.202"/>
  <use xlink:href="#glyph7-8" x="149.067639" y="86.202"/>
  <use xlink:href="#glyph7-5" x="152.893466" y="86.202"/>
</g>
<g style="fill:rgb(0%,0%,0%);fill-opacity:1;">
  <use xlink:href="#glyph0-5" x="114.072" y="49.888"/>
</g>
<g style="fill:rgb(0%,0%,0%);fill-opacity:1;">
  <use xlink:href="#glyph1-5" x="114.072" y="49.888"/>
</g>
<path style="fill:none;stroke-width:0.398;stroke-linecap:round;stroke-linejoin:round;stroke:rgb(0%,0%,0%);stroke-opacity:1;stroke-miterlimit:10;" d="M 100.38525 -116.119281 C 115.869625 -93.295062 115.799312 -70.470844 100.174312 -47.642719 " transform="matrix(1,0,0,-1,13.896,2.244)"/>
</g>
</svg>
